SplineFontDB: 3.2
FontName: ZamDates
FullName: ZamDates
FamilyName: ZamDates
Weight: Regular
Copyright: PD
UComments: "2025-2-26: Created with FontForge (http://fontforge.org)"
Version: 002.000
ItalicAngle: 0
UnderlinePosition: -165
UnderlineWidth: 75
Ascent: 800
Descent: 200
InvalidEm: 0
LayerCount: 2
Layer: 0 0 "Warstwa t+AUIA-a" 1
Layer: 1 0 "Plan pierwszy" 0
XUID: [1021 15 -1709294486 25575]
FSType: 256
OS2Version: 0
OS2_WeightWidthSlopeOnly: 0
OS2_UseTypoMetrics: 1
CreationTime: 1740527901
ModificationTime: 1740529688
PfmFamily: 33
TTFWeight: 400
TTFWidth: 5
LineGap: 90
VLineGap: 0
OS2TypoAscent: 0
OS2TypoAOffset: 1
OS2TypoDescent: 0
OS2TypoDOffset: 1
OS2TypoLinegap: 90
OS2WinAscent: 0
OS2WinAOffset: 1
OS2WinDescent: 0
OS2WinDOffset: 1
HheadAscent: 0
HheadAOffset: 1
HheadDescent: 0
HheadDOffset: 1
OS2Vendor: 'PfEd'
MarkAttachClasses: 1
DEI: 91125
LangName: 1033
Encoding: Original
UnicodeInterp: none
NameList: AGL For New Fonts
DisplaySize: -48
AntiAlias: 1
FitToEm: 0
WinInfo: 0 38 13
OnlyBitmaps: 1
BeginPrivate: 0
EndPrivate
TeXData: 1 0 0 242221 121109 80740 545260 1048576 80740 783286 444596 497025 792723 393216 433062 380633 303038 157286 324010 404750 52429 2506097 1059062 262144
BeginChars: 99 99

StartChar: .notdef
Encoding: 0 -1 0
Width: 500
GlyphClass: 1
Flags: MW
HStem: 0 50<100 400 100 450> 483 50<100 400 100 100>
VStem: 50 50<50 50 50 483> 400 50<50 483 483 483>
LayerCount: 2
Fore
SplineSet
50 0 m 1
 50 533 l 1
 450 533 l 1
 450 0 l 1
 50 0 l 1
100 50 m 1
 400 50 l 1
 400 483 l 1
 100 483 l 1
 100 50 l 1
EndSplineSet
Validated: 1
EndChar

StartChar: exclam
Encoding: 4 33 4
Width: 276
GlyphClass: 1
Flags: MW
HStem: -13 134<127.5 148.5> 673 20G<88 188 188 188>
VStem: 71 134<45 63> 88 100<505 693>
LayerCount: 2
Fore
SplineSet
188 505 m 2xd0
 188 449 186 398 182 352 c 0
 178 307 173 261 167 216 c 1
 109 216 l 1
 103 261 98 307 94 352 c 0
 90 398 88 449 88 505 c 2
 88 693 l 1
 188 693 l 1
 188 505 l 2xd0
205 54 m 0xe0
 205 36 199 20 187 7 c 0
 175 -6 159 -13 138 -13 c 0
 117 -13 101 -6 89 7 c 0
 77 20 71 36 71 54 c 0
 71 72 77 88 89 101 c 0
 101 114 117 121 138 121 c 0
 159 121 175 114 187 101 c 0
 199 88 205 72 205 54 c 0xe0
EndSplineSet
Validated: 1
EndChar

StartChar: quotedbl
Encoding: 5 34 5
Width: 418
GlyphClass: 1
Flags: MW
HStem: 501 259<93 148 93 93 270 270 270 325>
VStem: 72 97<711 760 693.5 760> 249 97<711 760 693.5 760>
LayerCount: 2
Fore
SplineSet
169 760 m 1
 169 710 l 2
 169 677 167 643 163 608 c 0
 159 572 154 536 148 501 c 1
 93 501 l 1
 87 536 82 572 78 608 c 0
 74 643 72 678 72 711 c 2
 72 760 l 1
 169 760 l 1
346 760 m 1
 346 710 l 2
 346 677 344 643 340 608 c 0
 336 572 331 536 325 501 c 1
 270 501 l 1
 264 536 259 572 255 608 c 0
 251 643 249 678 249 711 c 2
 249 760 l 1
 346 760 l 1
EndSplineSet
Validated: 1
EndChar

StartChar: numbersign
Encoding: 6 35 6
Width: 667
GlyphClass: 1
Flags: MW
HStem: 0 21G<102 186 102 102 348 432 348 348> 183 74<49 137 49 151 235 383 49 221 481 618> 436 74<49 185 49 200 49 270 284 432 530 618> 673 20G<235 319 319 319 481 565 565 565>
LayerCount: 2
Fore
SplineSet
284 510 m 1
 446 510 l 1
 481 693 l 1
 565 693 l 1
 530 510 l 1
 618 510 l 1
 618 436 l 1
 515 436 l 1
 481 257 l 1
 618 257 l 1
 618 183 l 1
 467 183 l 1
 432 0 l 1
 348 0 l 1
 383 183 l 1
 221 183 l 1
 186 0 l 1
 102 0 l 1
 137 183 l 1
 49 183 l 1
 49 257 l 1
 151 257 l 1
 185 436 l 1
 49 436 l 1
 49 510 l 1
 200 510 l 1
 235 693 l 1
 319 693 l 1
 284 510 l 1
235 257 m 1
 397 257 l 1
 432 436 l 1
 270 436 l 1
 235 257 l 1
EndSplineSet
Validated: 1
EndChar

StartChar: dollar
Encoding: 7 36 7
Width: 564
GlyphClass: 1
Flags: MW
HStem: 20 75<241.5 324> 586 75<241 315>
VStem: 75 97<490.5 510.5> 241 83<-109 17 17 17 664 776> 401 99<169.5 191.5>
LayerCount: 2
Fore
SplineSet
262 95 m 0
 313 95 349 103 370 120 c 0
 391 136 401 157 401 182 c 0
 401 201 396 217 388 230 c 0
 378 243 366 255 352 265 c 0
 336 275 319 284 300 292 c 0
 280 300 260 308 239 315 c 0
 219 322 199 330 180 340 c 0
 160 348 142 360 127 372 c 0
 112 386 99 401 90 420 c 0
 80 438 75 460 75 487 c 0
 75 534 89 573 118 604 c 0
 146 634 187 653 241 661 c 1
 241 776 l 1
 324 776 l 1
 324 664 l 1
 353 663 381 659 406 653 c 0
 431 647 451 641 466 636 c 1
 447 558 l 1
 431 564 411 570 387 576 c 0
 363 583 333 586 297 586 c 0
 257 586 226 578 204 563 c 0
 183 548 172 526 172 498 c 0
 172 483 175 470 182 459 c 0
 188 448 197 439 209 430 c 0
 221 422 235 415 252 408 c 0
 268 401 286 394 306 387 c 0
 332 377 357 367 380 356 c 0
 403 345 424 332 442 318 c 0
 459 302 473 285 484 264 c 0
 495 243 500 218 500 189 c 0
 500 142 486 104 457 74 c 0
 428 46 384 27 324 20 c 1
 324 -109 l 1
 241 -109 l 1
 241 17 l 1
 194 18 156 24 127 32 c 0
 98 42 76 50 61 58 c 1
 86 133 l 1
 106 124 130 115 158 107 c 0
 186 99 221 95 262 95 c 0
EndSplineSet
Validated: 1
EndChar

StartChar: percent
Encoding: 8 37 8
Width: 858
GlyphClass: 1
Flags: MW
HStem: -15 69<637.5 660.5> 0 21G<188 279 188 188> 284 69<637.5 660.5 637.5 662> 340 69<197.5 220.5> 639 69<197.5 220.5 197.5 222> 673 20G<579 670 670 670>
VStem: 50 78<509 539> 290 78<509 539 509 542> 490 78<154 184> 730 78<154 184 154 187>
LayerCount: 2
Fore
SplineSet
50 524 m 0x1bc0
 50 554 54 580 62 603 c 0
 70 626 81 645 96 660 c 0
 110 676 127 688 146 696 c 0
 165 704 186 708 209 708 c 0
 232 708 253 704 272 696 c 0
 291 688 308 676 322 660 c 0
 337 645 348 626 356 603 c 0
 364 580 368 554 368 524 c 0
 368 494 364 468 356 445 c 0
 348 422 337 403 322 388 c 0
 308 372 291 360 272 352 c 0
 253 344 232 340 209 340 c 0
 186 340 165 344 146 352 c 0
 127 360 110 372 96 388 c 0
 81 403 70 422 62 445 c 0
 54 468 50 494 50 524 c 0x1bc0
290 524 m 0
 290 560 283 588 269 608 c 0
 255 629 235 639 209 639 c 0
 183 639 163 629 149 608 c 0
 135 588 128 560 128 524 c 0
 128 488 135 460 149 440 c 0
 163 419 183 409 209 409 c 0
 235 409 255 419 269 440 c 0
 283 460 290 488 290 524 c 0
490 169 m 0
 490 199 494 225 502 248 c 0
 510 271 521 290 536 306 c 0
 550 321 567 333 586 341 c 0
 605 349 626 353 649 353 c 0
 672 353 693 349 712 341 c 0
 731 333 748 321 762 306 c 0
 777 290 788 271 796 248 c 0
 804 225 808 199 808 169 c 0
 808 139 804 113 796 90 c 0
 788 67 777 48 762 32 c 0
 748 17 731 5 712 -3 c 0
 693 -11 672 -15 649 -15 c 0xa3c0
 626 -15 605 -11 586 -3 c 0
 567 5 550 17 536 32 c 0
 521 48 510 67 502 90 c 0
 494 113 490 139 490 169 c 0
730 169 m 0
 730 205 723 233 709 254 c 0
 695 274 675 284 649 284 c 0
 623 284 603 274 589 254 c 0
 575 233 568 205 568 169 c 0
 568 133 575 105 589 84 c 0
 603 64 623 54 649 54 c 0
 675 54 695 64 709 84 c 0
 723 105 730 133 730 169 c 0
670 693 m 1x47c0
 279 0 l 1
 188 0 l 1
 579 693 l 1
 670 693 l 1x47c0
EndSplineSet
Validated: 1
EndChar

StartChar: ampersand
Encoding: 9 38 9
Width: 666
GlyphClass: 1
Flags: MW
HStem: -9 77<261.5 290.5 261.5 295.5> 0 21G<557 655 557 557> 636 73<285 311>
VStem: 46 93<180 196.5 180 197> 120 87<522.5 550.5> 382 84<546.5 566.5> 532 77<333 343>
LayerCount: 2
Fore
SplineSet
46 184 m 0xb6
 46 210 50 233 58 254 c 0
 66 274 77 292 90 308 c 0
 104 325 120 339 138 352 c 0
 156 364 175 375 194 384 c 1
 145 433 120 484 120 537 c 0
 120 564 124 588 134 609 c 0
 142 630 155 648 170 663 c 0
 186 678 205 689 226 697 c 0
 248 705 272 709 298 709 c 0
 325 709 348 705 370 697 c 0
 390 689 408 678 422 665 c 0
 437 652 448 636 455 617 c 0
 462 598 466 579 466 558 c 0
 466 535 462 514 454 495 c 0
 447 476 436 459 424 444 c 0
 410 429 396 415 379 402 c 0
 362 389 345 378 326 368 c 1
 488 203 l 1
 511 245 525 292 532 343 c 1
 609 333 l 1
 606 306 600 276 588 244 c 0
 578 211 562 179 542 147 c 1
 565 122 587 97 606 72 c 0
 626 47 642 23 655 0 c 1
 557 0 l 1x6e
 549 13 539 27 528 41 c 0
 516 55 504 69 491 83 c 1
 464 56 432 34 396 16 c 0
 360 0 319 -9 272 -9 c 0
 229 -9 193 -3 164 10 c 0
 135 22 112 38 94 56 c 0
 77 76 64 96 57 119 c 0
 50 142 46 163 46 184 c 0xb6
139 186 m 0xb6
 139 174 141 161 146 147 c 0
 151 133 158 120 169 108 c 0
 180 97 194 87 210 80 c 0
 228 72 249 68 274 68 c 0
 307 68 337 74 364 86 c 0
 392 98 417 115 438 137 c 1
 243 334 l 1
 231 328 219 321 206 313 c 0
 194 305 183 295 173 284 c 0
 163 272 155 258 148 242 c 0
 142 226 139 207 139 186 c 0xb6
382 555 m 0
 382 578 374 597 360 612 c 0
 344 628 324 636 298 636 c 0
 269 636 246 627 230 610 c 0
 215 592 207 570 207 544 c 0x2e
 207 501 230 458 275 417 c 1
 290 424 304 432 316 441 c 0
 330 450 341 460 350 471 c 0
 360 482 368 495 374 508 c 0
 379 522 382 538 382 555 c 0
EndSplineSet
Validated: 1
EndChar

StartChar: quotesingle
Encoding: 10 39 10
Width: 241
GlyphClass: 1
Flags: MW
HStem: 501 259<93 148 93 93>
VStem: 72 97<711 760 693.5 760>
LayerCount: 2
Fore
SplineSet
169 760 m 1
 169 710 l 2
 169 677 167 643 163 608 c 0
 159 572 154 536 148 501 c 1
 93 501 l 1
 87 536 82 572 78 608 c 0
 74 643 72 678 72 711 c 2
 72 760 l 1
 169 760 l 1
EndSplineSet
Validated: 1
EndChar

StartChar: parenleft
Encoding: 11 40 11
Width: 324
GlyphClass: 1
Flags: MW
HStem: -185 21G<251 251>
VStem: 78 93<256.5 341.5 256.5 346.5>
LayerCount: 2
Fore
SplineSet
171 299 m 0
 171 214 183 135 208 62 c 0
 233 -11 269 -78 317 -140 c 1
 251 -185 l 1
 199 -122 157 -49 126 34 c 0
 94 116 78 204 78 299 c 0
 78 394 94 482 126 564 c 0
 157 647 199 720 251 783 c 1
 317 738 l 1
 269 676 233 609 208 536 c 0
 183 463 171 384 171 299 c 0
EndSplineSet
Validated: 1
EndChar

StartChar: parenright
Encoding: 12 41 12
Width: 324
GlyphClass: 1
Flags: MW
HStem: -185 21G<73 73>
VStem: 153 93<256.5 341.5>
LayerCount: 2
Fore
SplineSet
153 299 m 0
 153 384 141 463 116 536 c 0
 91 609 55 676 7 738 c 1
 73 783 l 1
 125 720 167 647 198 564 c 0
 230 482 246 394 246 299 c 0
 246 204 230 116 198 34 c 0
 167 -49 125 -122 73 -185 c 1
 7 -140 l 1
 55 -78 91 -11 116 62 c 0
 141 135 153 214 153 299 c 0
EndSplineSet
Validated: 1
EndChar

StartChar: asterisk
Encoding: 13 42 13
Width: 480
GlyphClass: 1
Flags: MW
HStem: 512 85<45 71> 673 20G<195 285 285 285>
VStem: 195 90<685 693 671 693>
LayerCount: 2
Fore
SplineSet
285 685 m 2
 285 657 282 630 278 604 c 0
 272 579 267 552 262 525 c 1
 286 538 310 551 333 564 c 0
 356 577 382 588 409 597 c 2
 415 599 l 1
 443 515 l 1
 435 512 l 2
 408 502 382 496 355 492 c 0
 328 490 301 487 273 485 c 1
 295 466 316 448 335 430 c 0
 354 413 372 392 389 369 c 2
 394 362 l 1
 321 311 l 1
 317 317 l 2
 301 341 287 365 276 388 c 0
 264 412 252 437 240 462 c 1
 228 437 216 412 204 388 c 0
 193 365 179 341 163 317 c 2
 159 311 l 1
 86 362 l 1
 91 369 l 2
 108 392 126 413 145 430 c 0
 164 448 185 466 207 485 c 1
 179 487 152 490 125 492 c 0
 98 496 72 502 45 512 c 2
 37 515 l 1
 65 599 l 1
 71 597 l 2
 98 588 124 577 147 564 c 0
 170 551 194 538 218 525 c 1
 213 552 208 579 202 604 c 0
 198 630 195 657 195 685 c 2
 195 693 l 1
 285 693 l 1
 285 685 l 2
EndSplineSet
Validated: 1
EndChar

StartChar: plus
Encoding: 14 43 14
Width: 564
GlyphClass: 1
Flags: MW
HStem: 260 79<53 242 53 242 322 511>
VStem: 242 80<53 260 53 260 339 545>
LayerCount: 2
Fore
SplineSet
53 339 m 1
 242 339 l 1
 242 545 l 1
 322 545 l 1
 322 339 l 1
 511 339 l 1
 511 260 l 1
 322 260 l 1
 322 53 l 1
 242 53 l 1
 242 260 l 1
 53 260 l 1
 53 339 l 1
EndSplineSet
Validated: 1
EndChar

StartChar: comma
Encoding: 15 44 15
Width: 246
GlyphClass: 1
Flags: MW
HStem: -159 273<110 110>
VStem: 79 100<62 70.5>
LayerCount: 2
Fore
SplineSet
178 114 m 1
 179 109 179 104 179 98 c 2
 179 83 l 2
 179 41 173 0 160 -42 c 0
 148 -82 131 -122 110 -159 c 1
 38 -136 l 1
 55 -102 66 -68 71 -32 c 0
 76 2 79 35 79 66 c 0
 79 75 79 83 78 91 c 0
 78 99 78 107 77 114 c 1
 178 114 l 1
EndSplineSet
Validated: 1
EndChar

StartChar: hyphen
Encoding: 16 45 16
Width: 300
GlyphClass: 1
Flags: MW
HStem: 256 87<26 273 26 273>
VStem: 26 247<256 343 256 343>
LayerCount: 2
Fore
SplineSet
15 343 m 1
 285 343 l 5
 285 256 l 5
 15 256 l 1
 15 343 l 1
EndSplineSet
Validated: 1
EndChar

StartChar: period
Encoding: 17 46 17
Width: 246
GlyphClass: 1
Flags: MW
HStem: -13 134<112.5 133.5>
VStem: 56 134<45 63>
LayerCount: 2
Fore
SplineSet
190 54 m 0
 190 36 184 20 172 7 c 0
 160 -6 144 -13 123 -13 c 0
 102 -13 86 -6 74 7 c 0
 62 20 56 36 56 54 c 0
 56 72 62 88 74 101 c 0
 86 114 102 121 123 121 c 0
 144 121 160 114 172 101 c 0
 184 88 190 72 190 54 c 0
EndSplineSet
Validated: 1
EndChar

StartChar: slash
Encoding: 18 47 18
Width: 377
GlyphClass: 1
Flags: MW
HStem: 0 21G<15 15 15 102> 648 20G<275 362 362 362>
LayerCount: 2
Fore
SplineSet
15 0 m 1
 275 668 l 1
 362 668 l 1
 102 0 l 1
 15 0 l 1
EndSplineSet
Validated: 1
EndChar

StartChar: zero
Encoding: 19 48 19
Width: 648
GlyphClass: 1
Flags: MW
HStem: -12 74<294.5 347 294.5 367> 606 74<302.5 353.5>
VStem: 60 91<291.5 349.5 291.5 390.5> 497 91<306.5 378.5>
LayerCount: 2
Fore
SplineSet
324 -12 m 0
 238 -12 172 18 128 78 c 0
 82 137 60 223 60 335 c 0
 60 446 82 532 128 591 c 0
 172 650 238 680 324 680 c 0
 410 680 476 650 520 591 c 0
 566 532 588 446 588 335 c 0
 588 223 566 137 520 78 c 0
 476 18 410 -12 324 -12 c 0
480 190 m 1
 491 230 497 278 497 335 c 0
 497 422 483 489 454 536 c 0
 426 583 383 606 324 606 c 0
 281 606 245 593 217 566 c 1
 480 190 l 1
324 62 m 0
 370 62 407 77 435 107 c 1
 171 486 l 1
 164 465 159 442 156 417 c 0
 153 392 151 364 151 335 c 0
 151 248 165 180 194 133 c 0
 222 86 265 62 324 62 c 0
EndSplineSet
Validated: 1
EndChar

StartChar: one
Encoding: 20 49 20
Width: 402
GlyphClass: 1
Flags: MW
HStem: 0 21G<220 220 220 304> 504 67<42 58 42 220 42 58> 648 20G<248 304 304 304>
VStem: 220 84<0 504 504 504> 248 56<0 668>
LayerCount: 2
Fore
SplineSet
220 0 m 1xf0
 220 504 l 1xf0
 42 504 l 1
 42 571 l 1
 74 571 104 573 132 578 c 0
 159 583 183 592 204 606 c 0
 224 620 239 641 248 668 c 1
 304 668 l 1xe8
 304 0 l 1
 220 0 l 1xf0
EndSplineSet
Validated: 1
EndChar

StartChar: two
Encoding: 21 50 21
Width: 549
GlyphClass: 1
Flags: MW
HStem: 0 77<147 515 147 515> 610 70<267.5 302.5>
VStem: 59 84<498 522> 408 89<485.5 511.5>
LayerCount: 2
Fore
SplineSet
34 0 m 1
 34 75 l 1
 113 133 180 186 236 235 c 0
 291 284 334 329 364 372 c 0
 393 414 408 455 408 494 c 0
 408 529 397 557 375 578 c 0
 353 599 322 610 283 610 c 0
 252 610 222 602 196 584 c 0
 168 568 151 539 143 498 c 1
 59 522 l 1
 71 571 97 609 137 638 c 0
 177 666 226 680 285 680 c 0
 326 680 363 673 394 660 c 0
 426 646 451 626 470 600 c 0
 488 574 497 542 497 505 c 0
 497 466 488 428 469 392 c 0
 450 354 425 318 392 284 c 0
 359 248 322 214 280 180 c 0
 238 145 194 111 147 77 c 1
 515 77 l 1
 515 0 l 1
 34 0 l 1
EndSplineSet
Validated: 1
EndChar

StartChar: three
Encoding: 22 51 22
Width: 574
GlyphClass: 1
Flags: MW
HStem: -12 70<251.5 293.5> 314 76<218 223.5> 610 70<256.5 294.5>
VStem: 52 82<498 522> 407 88<493 519> 424 90<166.5 199.5>
LayerCount: 2
Fore
SplineSet
272 -12 m 0xf4
 227 -12 189 -5 158 10 c 0
 126 25 101 44 82 69 c 0
 63 94 50 121 42 151 c 1
 125 175 l 1
 132 140 148 112 172 90 c 0
 197 69 230 58 273 58 c 0
 317 58 353 69 382 92 c 0
 410 114 424 146 424 187 c 0xf4
 424 212 419 233 408 250 c 0
 397 266 384 278 367 287 c 0
 350 296 332 302 314 306 c 0
 294 310 276 312 260 313 c 0
 242 314 229 314 218 314 c 1
 218 390 l 1
 237 390 257 391 278 393 c 0
 300 395 321 400 340 406 c 0
 360 414 376 424 388 440 c 0
 401 454 407 475 407 501 c 0
 407 537 394 564 368 582 c 0
 343 601 312 610 277 610 c 0
 236 610 204 600 180 579 c 0
 156 558 141 531 134 498 c 1
 52 522 l 1
 64 569 90 608 128 636 c 0
 168 666 218 680 279 680 c 0
 318 680 353 674 386 664 c 0
 419 652 445 634 465 610 c 0
 485 584 495 551 495 510 c 0xf8
 495 476 486 445 467 418 c 0
 448 391 421 370 386 355 c 1
 436 340 470 317 488 286 c 0
 505 256 514 223 514 188 c 0
 514 143 503 106 480 76 c 0
 457 47 428 25 391 10 c 0
 354 -5 315 -12 272 -12 c 0xf4
EndSplineSet
Validated: 1
EndChar

StartChar: four
Encoding: 23 52 23
Width: 614
GlyphClass: 1
Flags: MW
HStem: 0 21G<370 370 370 454> 165 79<129 370 38 38 454 576> 648 20G<369 454 454 454>
VStem: 370 84<0 165 0 165 244 553 553 553>
LayerCount: 2
Fore
SplineSet
370 0 m 1
 370 165 l 1
 38 165 l 1
 38 244 l 1
 369 668 l 1
 454 668 l 1
 454 244 l 1
 576 244 l 1
 576 165 l 1
 454 165 l 1
 454 0 l 1
 370 0 l 1
129 244 m 1
 370 244 l 1
 370 553 l 1
 129 244 l 1
EndSplineSet
Validated: 1
EndChar

StartChar: five
Encoding: 24 53 24
Width: 583
GlyphClass: 1
Flags: MW
HStem: -12 70<262.5 297.5 262.5 304.5> 378 72<288.5 295> 587 81<181 496 181 181>
VStem: 433 88<202 237.5>
LayerCount: 2
Fore
SplineSet
284 -12 m 0
 239 -12 201 -5 170 10 c 0
 139 25 114 44 95 69 c 0
 76 94 63 121 54 151 c 1
 136 175 l 1
 144 138 160 110 184 89 c 0
 207 68 241 58 284 58 c 0
 311 58 335 64 358 77 c 0
 381 90 399 108 412 132 c 0
 426 156 433 185 433 219 c 0
 433 256 426 287 410 310 c 0
 396 333 376 350 354 362 c 0
 330 372 307 378 283 378 c 0
 248 378 220 370 198 354 c 0
 176 337 161 321 154 304 c 1
 72 328 l 1
 113 668 l 1
 496 668 l 1
 496 587 l 1
 181 587 l 1
 158 400 l 1
 175 417 197 430 222 438 c 0
 248 446 275 450 302 450 c 0
 341 450 378 441 410 423 c 0
 444 405 470 379 490 345 c 0
 511 311 521 269 521 220 c 0
 521 169 510 127 488 92 c 0
 465 57 436 31 400 14 c 0
 364 -3 325 -12 284 -12 c 0
EndSplineSet
Validated: 1
EndChar

StartChar: six
Encoding: 25 54 25
Width: 598
GlyphClass: 1
Flags: MW
HStem: -12 71<280.5 325 280.5 327> 371 74<300.5 325> 610 70<296.5 324.5>
VStem: 60 87 448 90<197.5 238>
LayerCount: 2
Fore
SplineSet
303 -12 m 0
 220 -12 158 16 119 72 c 0
 80 128 60 207 60 310 c 0
 60 357 64 403 74 447 c 0
 82 491 97 530 118 566 c 0
 138 600 165 628 198 649 c 0
 231 670 272 680 321 680 c 0
 370 680 410 670 441 649 c 0
 472 628 494 603 509 573 c 1
 424 548 l 1
 414 567 399 582 380 594 c 0
 361 604 338 610 311 610 c 0
 259 610 219 586 192 539 c 0
 164 492 149 429 147 352 c 1
 162 378 184 400 213 418 c 0
 242 436 278 445 323 445 c 0
 364 445 401 435 434 416 c 0
 466 397 491 370 510 336 c 0
 529 302 538 263 538 218 c 0
 538 177 528 138 509 104 c 0
 490 68 462 40 428 20 c 0
 392 -2 351 -12 303 -12 c 0
303 59 m 0
 347 59 382 74 408 102 c 0
 435 132 448 169 448 215 c 0
 448 261 435 298 408 328 c 0
 382 356 347 371 303 371 c 0
 258 371 223 356 196 328 c 0
 170 298 157 261 157 215 c 0
 157 169 170 132 196 102 c 0
 223 74 258 59 303 59 c 0
EndSplineSet
Validated: 1
EndChar

StartChar: seven
Encoding: 26 55 26
Width: 510
GlyphClass: 1
Flags: MW
HStem: 0 21G<93 93 93 198> 587 81<15 383 15 476 15 476>
LayerCount: 2
Fore
SplineSet
93 0 m 1
 383 587 l 1
 15 587 l 1
 15 668 l 1
 476 668 l 1
 476 587 l 1
 198 0 l 1
 93 0 l 1
EndSplineSet
Validated: 1
EndChar

StartChar: eight
Encoding: 27 56 27
Width: 615
GlyphClass: 1
Flags: W
HStem: -12 74<212.408 402.832> 317 74<243.375 371.171> 606 74<242.113 371.681>
VStem: 60 91<118.599 259.444> 126 74<433.65 563.697> 414 75<433.65 563.697> 464 91<117.15 260.101>
LayerCount: 2
Fore
SplineSet
307 -12 m 0xe2
 261 -12 219 -4 182 12 c 0
 145 27 115 50 93 80 c 0
 71 109 60 145 60 188 c 0xf2
 60 231 71 268 94 298 c 0
 117 329 146 351 183 366 c 1
 166 383 152 402 142 425 c 0
 131 448 126 472 126 499 c 0
 126 532 134 563 150 590 c 0
 167 617 189 639 216 656 c 0
 243 672 274 680 307 680 c 0
 341 680 372 672 399 656 c 0
 426 639 448 617 464 590 c 0xea
 481 563 489 532 489 499 c 0xe4
 489 472 484 448 474 425 c 0
 463 402 449 383 432 366 c 1
 469 351 499 329 522 298 c 0
 544 268 555 231 555 188 c 0
 555 145 544 109 522 80 c 0
 500 50 470 27 433 12 c 0
 396 -4 354 -12 307 -12 c 0xe2
307 391 m 0
 336 391 362 402 382 422 c 0
 404 444 414 469 414 500 c 0
 414 529 404 554 382 575 c 0
 362 596 336 606 307 606 c 0
 278 606 252 596 232 575 c 0
 210 554 200 529 200 500 c 0xec
 200 469 210 444 232 422 c 0
 252 402 278 391 307 391 c 0
307 62 m 0
 355 62 393 73 422 96 c 0
 450 119 464 149 464 188 c 0
 464 227 450 259 422 282 c 0
 393 305 355 317 307 317 c 0
 260 317 222 305 194 282 c 0
 165 259 151 227 151 188 c 0xf2
 151 149 165 119 194 96 c 0
 222 73 260 62 307 62 c 0
EndSplineSet
Validated: 1
EndChar

StartChar: nine
Encoding: 28 57 28
Width: 598
GlyphClass: 1
Flags: MW
HStem: 0 21G<213 213 213 317> 201 86<285 308.5> 594 85<285 313.5>
VStem: 60 86<427 455 427 463> 454 84<427 455>
LayerCount: 2
Fore
SplineSet
213 0 m 1
 226 19 l 2
 236 32 247 48 262 69 c 0
 276 90 291 112 307 136 c 0
 323 161 338 184 352 207 c 1
 335 203 318 201 299 201 c 0
 256 201 216 212 180 234 c 0
 143 255 114 284 92 320 c 0
 71 357 60 397 60 441 c 0
 60 485 71 525 92 561 c 0
 113 597 142 626 178 647 c 0
 215 668 255 679 299 679 c 0
 345 679 386 668 422 646 c 0
 458 625 486 596 507 560 c 0
 528 523 538 483 538 439 c 0
 538 408 532 378 520 348 c 0
 517 340 509 324 497 302 c 0
 485 278 470 251 452 218 c 0
 433 185 412 150 390 112 c 0
 366 75 342 37 317 0 c 1
 213 0 l 1
299 287 m 0
 328 287 354 294 377 308 c 0
 400 322 419 341 433 364 c 0
 447 387 454 413 454 441 c 0
 454 469 447 495 433 518 c 0
 419 541 400 560 377 574 c 0
 354 587 328 594 299 594 c 0
 271 594 245 587 222 574 c 0
 199 560 180 541 166 518 c 0
 153 495 146 469 146 441 c 0
 146 413 153 387 166 364 c 0
 180 341 199 322 222 308 c 0
 245 294 271 287 299 287 c 0
EndSplineSet
Validated: 1
EndChar

StartChar: colon
Encoding: 29 58 29
Width: 246
GlyphClass: 1
Flags: MW
HStem: -12 129<93.5 111> 375 129<93.5 111>
VStem: 38 129<43.5 61 431 448.5>
LayerCount: 2
Fore
SplineSet
102 375 m 0
 85 375 70 381 57 394 c 0
 44 407 38 422 38 440 c 0
 38 457 44 472 57 485 c 0
 70 498 85 504 102 504 c 0
 120 504 135 498 148 485 c 0
 161 472 167 457 167 440 c 0
 167 422 161 407 148 394 c 0
 135 381 120 375 102 375 c 0
102 -12 m 0
 85 -12 70 -6 57 7 c 0
 44 20 38 35 38 52 c 0
 38 70 44 85 57 98 c 0
 70 111 85 117 102 117 c 0
 120 117 135 111 148 98 c 0
 161 85 167 70 167 52 c 0
 167 35 161 20 148 7 c 0
 135 -6 120 -12 102 -12 c 0
EndSplineSet
Validated: 1
EndChar

StartChar: semicolon
Encoding: 30 59 30
Width: 246
GlyphClass: 1
Flags: MW
HStem: 375 129<93.5 111>
VStem: 38 129<49 61.5 49 61.5 431 448.5>
LayerCount: 2
Fore
SplineSet
102 375 m 0
 85 375 70 381 57 394 c 0
 44 407 38 422 38 440 c 0
 38 457 44 472 57 485 c 0
 70 498 85 504 102 504 c 0
 120 504 135 498 148 485 c 0
 161 472 167 457 167 440 c 0
 167 422 161 407 148 394 c 0
 135 381 120 375 102 375 c 0
45 -133 m 1
 92 -11 l 1
 77 -8 64 -1 54 11 c 0
 43 23 38 37 38 53 c 0
 38 70 44 85 57 98 c 0
 70 111 85 117 102 117 c 0
 120 117 135 111 148 98 c 0
 161 85 167 70 167 53 c 0
 167 45 165 37 162 28 c 2
 100 -133 l 1
 45 -133 l 1
EndSplineSet
Validated: 1
EndChar

StartChar: less
Encoding: 31 60 31
Width: 553
GlyphClass: 1
Flags: MW
HStem: 0 21G<513 513>
LayerCount: 2
Fore
SplineSet
513 0 m 1
 40 213 l 1
 40 283 l 1
 513 496 l 1
 513 406 l 1
 145 248 l 1
 513 90 l 1
 513 0 l 1
EndSplineSet
Validated: 1
EndChar

StartChar: equal
Encoding: 32 61 32
Width: 602
GlyphClass: 1
Flags: MW
HStem: 121 79<53 549 53 549> 307 79<53 549 53 549>
LayerCount: 2
Fore
SplineSet
53 307 m 1
 53 386 l 1
 549 386 l 1
 549 307 l 1
 53 307 l 1
53 121 m 1
 53 200 l 1
 549 200 l 1
 549 121 l 1
 53 121 l 1
EndSplineSet
Validated: 1
EndChar

StartChar: greater
Encoding: 33 62 33
Width: 553
GlyphClass: 1
Flags: MW
HStem: 0 21G<40 40>
LayerCount: 2
Fore
SplineSet
40 0 m 1
 40 90 l 1
 408 248 l 1
 40 406 l 1
 40 496 l 1
 513 283 l 1
 513 213 l 1
 40 0 l 1
EndSplineSet
Validated: 1
EndChar

StartChar: question
Encoding: 34 63 34
Width: 520
GlyphClass: 1
Flags: MW
HStem: -12 129<218.5 235.5> 610 70<242 275.5>
VStem: 40 82<501 524> 162 129<43.5 60.5 43.5 61> 182 86<190 224 190 227 190 240> 382 88<501.5 524>
LayerCount: 2
Fore
SplineSet
182 190 m 1xec
 182 227 l 2
 182 253 186 275 194 292 c 0
 203 310 216 326 232 341 c 0
 250 356 271 371 296 387 c 0
 320 402 340 420 357 439 c 0
 374 458 382 481 382 508 c 0
 382 540 370 565 347 583 c 0
 324 601 294 610 257 610 c 0
 227 610 203 604 184 594 c 0
 165 582 151 569 142 552 c 0
 132 535 125 518 122 501 c 1
 40 524 l 1
 50 572 75 610 116 638 c 0
 156 666 204 680 261 680 c 0
 296 680 329 674 361 662 c 0
 393 651 419 633 440 609 c 0
 460 585 470 554 470 516 c 0
 470 487 464 461 452 438 c 0
 440 415 424 394 406 376 c 0
 386 358 366 342 345 328 c 0
 326 316 311 305 300 296 c 0
 289 287 280 277 276 266 c 0
 270 255 268 241 268 224 c 2
 268 190 l 1
 182 190 l 1xec
227 -12 m 0
 210 -12 195 -6 182 6 c 0xec
 169 18 162 33 162 52 c 0
 162 70 168 85 181 98 c 0
 194 111 209 117 227 117 c 0
 245 117 260 110 272 98 c 0
 285 84 291 69 291 52 c 0xf4
 291 35 285 20 272 7 c 0
 259 -6 244 -12 227 -12 c 0
EndSplineSet
Validated: 1
EndChar

StartChar: at
Encoding: 35 64 35
Width: 780
GlyphClass: 1
Flags: MW
HStem: -12 61<377.5 409.5> 155 74<360.5 367.5 569 585.5> 445 74<397.5 410> 618 62<376.5 415>
VStem: 50 62<313.5 354.5 313.5 358.5> 218 84<300.5 331.5 298.5 343.5> 451 81<338 441 441 441> 668 62<354.5 383>
LayerCount: 2
Fore
SplineSet
398 -12 m 0
 354 -12 311 -4 270 13 c 0
 228 30 190 53 158 84 c 0
 124 114 98 150 79 193 c 0
 60 236 50 283 50 335 c 0
 50 382 59 427 77 468 c 0
 95 510 120 547 152 578 c 0
 183 610 220 635 262 653 c 0
 303 671 348 680 396 680 c 0
 434 680 472 673 512 660 c 0
 550 646 586 626 620 598 c 0
 652 572 679 538 700 500 c 0
 720 460 730 416 730 366 c 0
 730 315 722 274 706 242 c 0
 691 212 671 189 648 176 c 0
 624 162 600 155 575 155 c 0
 552 155 531 160 512 171 c 0
 493 182 480 196 473 213 c 1
 457 194 439 179 418 170 c 0
 398 160 378 155 357 155 c 0
 334 155 311 161 290 174 c 0
 269 186 251 204 238 228 c 0
 225 253 218 283 218 318 c 0
 218 369 227 409 246 438 c 0
 265 467 289 488 318 500 c 0
 348 513 380 519 413 519 c 0
 433 519 453 517 474 514 c 0
 494 510 513 505 532 499 c 1
 532 273 l 2
 532 258 536 247 544 240 c 0
 553 233 563 229 575 229 c 0
 596 229 613 236 626 248 c 0
 640 262 650 278 658 300 c 0
 664 320 668 343 668 366 c 0
 668 400 661 432 647 462 c 0
 633 493 614 520 588 543 c 0
 564 566 535 585 502 598 c 0
 469 611 434 618 396 618 c 0
 357 618 321 611 286 596 c 0
 252 581 222 561 196 536 c 0
 169 510 149 480 134 446 c 0
 119 411 112 374 112 335 c 0
 112 292 120 254 136 218 c 0
 151 184 172 153 199 128 c 0
 226 103 256 83 290 70 c 0
 324 56 359 49 396 49 c 0
 444 49 489 61 532 85 c 1
 532 16 l 1
 511 7 489 0 466 -5 c 0
 443 -10 421 -12 398 -12 c 0
369 229 m 0
 388 229 407 238 424 256 c 0
 442 275 451 302 451 338 c 2
 451 441 l 1
 444 442 437 443 430 444 c 0
 422 445 414 445 406 445 c 0
 389 445 373 442 357 435 c 0
 341 428 328 416 318 396 c 0
 307 378 302 350 302 313 c 0
 302 284 309 263 322 250 c 0
 336 236 352 229 369 229 c 0
EndSplineSet
Validated: 1
EndChar

StartChar: A
Encoding: 36 65 36
Width: 663
GlyphClass: 1
Flags: MW
HStem: 0 21G<8 109 8 8 549 655 549 549> 177 80<200 458 200 486 172 458> 673 20G<287 376 376 376>
LayerCount: 2
Fore
SplineSet
549 0 m 1
 538 30 527 60 517 88 c 0
 507 118 497 147 486 177 c 1
 172 177 l 1
 109 0 l 1
 8 0 l 1
 35 73 60 141 83 204 c 0
 106 266 129 325 152 381 c 0
 174 437 196 490 218 542 c 0
 240 592 263 643 287 693 c 1
 376 693 l 1
 400 643 423 592 445 542 c 0
 467 490 489 437 512 381 c 0
 534 325 557 266 580 204 c 0
 603 141 628 73 655 0 c 1
 549 0 l 1
458 257 m 1
 437 315 416 371 394 426 c 0
 374 480 352 532 329 582 c 1
 306 532 284 480 262 426 c 0
 242 371 221 315 200 257 c 1
 458 257 l 1
EndSplineSet
Validated: 1
EndChar

StartChar: B
Encoding: 37 66 37
Width: 643
GlyphClass: 1
Flags: MW
HStem: -6 81<271.5 293.5 271.5 328.5> 323 78<182 284 182 284 284 296 182 307> 619 81<265.5 290.5>
VStem: 86 96<79 323 401 615> 458 100<500.5 521> 492 100<189.5 213.5>
LayerCount: 2
Fore
SplineSet
273 -6 m 0xf4
 259 -6 244 -6 228 -5 c 0
 211 -4 195 -3 178 -2 c 0
 162 -1 146 1 130 3 c 0
 114 5 99 8 86 11 c 1
 86 683 l 1
 99 686 114 689 130 691 c 0
 146 693 162 695 178 696 c 0
 195 697 211 698 227 699 c 0
 243 700 258 700 272 700 c 0
 312 700 350 697 384 691 c 0
 420 685 450 675 476 660 c 0
 501 646 521 627 536 604 c 0
 551 581 558 552 558 518 c 0xf8
 558 480 549 449 531 424 c 0
 513 400 489 382 459 370 c 1
 500 358 532 339 556 313 c 0
 580 287 592 250 592 203 c 0
 592 134 566 82 516 46 c 0
 464 12 384 -6 273 -6 c 0xf4
182 323 m 1
 182 79 l 1
 189 78 198 78 208 77 c 0
 217 76 227 76 238 76 c 0
 250 75 264 75 279 75 c 0
 308 75 335 77 360 80 c 0
 386 84 409 91 428 100 c 0
 447 109 463 122 474 139 c 0
 486 156 492 177 492 202 c 0xf4
 492 225 488 244 479 260 c 0
 470 275 458 288 442 297 c 0
 425 306 406 313 383 317 c 0
 360 321 335 323 307 323 c 2
 182 323 l 1
182 401 m 1
 284 401 l 2
 308 401 331 403 352 406 c 0
 373 409 392 415 408 424 c 0
 423 433 436 444 444 458 c 0
 454 472 458 490 458 511 c 0xf8
 458 531 453 548 444 562 c 0
 435 575 422 586 406 594 c 0
 389 603 370 609 348 613 c 0
 326 617 303 619 278 619 c 0
 253 619 234 619 220 618 c 0
 206 617 193 616 182 615 c 1
 182 401 l 1
EndSplineSet
Validated: 1
EndChar

StartChar: C
Encoding: 38 67 38
Width: 620
GlyphClass: 1
Flags: MW
HStem: -15 85<373.5 398> 624 85<380.5 403.5 366.5 407.5>
VStem: 58 103<326.5 368.5 326.5 376>
LayerCount: 2
Fore
SplineSet
384 -15 m 0
 335 -15 291 -7 251 9 c 0
 211 25 177 48 148 79 c 0
 119 110 97 148 82 192 c 0
 66 238 58 289 58 347 c 0
 58 405 67 456 84 502 c 0
 102 546 126 584 156 615 c 0
 186 646 221 669 261 685 c 0
 301 701 344 709 389 709 c 0
 418 709 444 707 466 703 c 0
 490 699 510 694 526 689 c 0
 544 684 557 678 568 673 c 0
 579 668 586 664 590 661 c 1
 562 581 l 1
 556 585 547 589 536 594 c 0
 525 599 512 603 498 608 c 0
 483 613 468 616 450 620 c 0
 434 622 416 624 399 624 c 0
 362 624 329 618 300 605 c 0
 271 592 246 574 225 550 c 0
 204 526 188 497 178 462 c 0
 166 428 161 390 161 347 c 0
 161 306 166 268 176 234 c 0
 185 200 200 171 219 146 c 0
 238 122 262 103 292 90 c 0
 320 77 354 70 393 70 c 0
 438 70 475 75 504 84 c 0
 533 93 555 102 570 109 c 1
 595 29 l 1
 590 26 582 22 570 16 c 0
 558 12 543 7 525 2 c 0
 507 -3 486 -7 462 -10 c 0
 438 -13 412 -15 384 -15 c 0
EndSplineSet
Validated: 1
EndChar

StartChar: D
Encoding: 39 68 39
Width: 713
GlyphClass: 1
Flags: MW
HStem: -6 85<264.5 298.5> 615 85<264.5 298.5 256 324>
VStem: 86 97<82 612 82 683 82 683> 552 103<317 377 317 389.5>
LayerCount: 2
Fore
SplineSet
655 347 m 0
 655 287 646 235 627 190 c 0
 608 146 582 110 548 80 c 0
 514 52 473 30 426 16 c 0
 379 1 327 -6 270 -6 c 0
 242 -6 211 -5 178 -2 c 0
 144 0 113 4 86 11 c 1
 86 683 l 1
 113 690 144 694 178 696 c 0
 211 699 242 700 270 700 c 0
 327 700 379 693 426 678 c 0
 473 664 514 642 548 614 c 0
 582 584 608 548 627 504 c 0
 646 459 655 407 655 347 c 0
278 79 m 0
 370 79 439 102 484 150 c 0
 529 196 552 262 552 347 c 0
 552 432 529 498 484 544 c 0
 439 592 370 615 278 615 c 0
 251 615 230 615 214 614 c 0
 200 613 189 613 183 612 c 1
 183 82 l 1
 189 81 200 81 214 80 c 0
 230 79 251 79 278 79 c 0
EndSplineSet
Validated: 1
EndChar

StartChar: E
Encoding: 40 69 40
Width: 571
GlyphClass: 1
Flags: MW
HStem: 0 83<183 534 183 534> 323 81<183 473 183 473> 610 83<183 509 183 183>
VStem: 86 97<83 323 404 610>
LayerCount: 2
Fore
SplineSet
86 0 m 1
 86 693 l 1
 509 693 l 1
 509 610 l 1
 183 610 l 1
 183 404 l 1
 473 404 l 1
 473 323 l 1
 183 323 l 1
 183 83 l 1
 534 83 l 1
 534 0 l 1
 86 0 l 1
EndSplineSet
Validated: 1
EndChar

StartChar: F
Encoding: 41 70 41
Width: 537
GlyphClass: 1
Flags: MW
HStem: 0 21G<86 86 86 183> 319 82<183 468 183 468> 610 83<183 504 183 183>
VStem: 86 97<0 319 401 610>
LayerCount: 2
Fore
SplineSet
86 0 m 1
 86 693 l 1
 504 693 l 1
 504 610 l 1
 183 610 l 1
 183 401 l 1
 468 401 l 1
 468 319 l 1
 183 319 l 1
 183 0 l 1
 86 0 l 1
EndSplineSet
Validated: 1
EndChar

StartChar: G
Encoding: 42 71 42
Width: 672
GlyphClass: 1
Flags: MW
HStem: -14 84<375.5 396> 624 85<378.5 406.5 368 412.5>
VStem: 58 103<326.5 368.5 326.5 376> 509 97<83 341 17 341>
LayerCount: 2
Fore
SplineSet
509 341 m 1
 606 341 l 1
 606 17 l 1
 598 14 586 11 572 8 c 0
 556 5 539 1 520 -2 c 0
 500 -5 478 -8 455 -10 c 0
 432 -13 408 -14 384 -14 c 0
 335 -14 291 -6 251 10 c 0
 211 26 177 49 148 80 c 0
 119 111 97 148 82 193 c 0
 66 238 58 289 58 347 c 0
 58 405 67 456 84 502 c 0
 102 546 126 584 156 615 c 0
 186 646 221 669 262 685 c 0
 302 701 345 709 391 709 c 0
 422 709 450 707 474 703 c 0
 499 699 520 694 537 689 c 0
 554 684 568 678 580 673 c 0
 590 668 598 664 602 661 c 1
 571 580 l 1
 552 593 526 603 494 612 c 0
 462 620 429 624 396 624 c 0
 361 624 328 618 300 605 c 0
 270 592 246 574 226 550 c 0
 205 526 189 497 178 462 c 0
 167 428 161 390 161 347 c 0
 161 306 166 268 176 234 c 0
 185 200 200 171 220 146 c 0
 239 122 264 103 292 90 c 0
 322 77 356 70 395 70 c 0
 423 70 447 72 466 74 c 0
 486 78 500 80 509 83 c 1
 509 341 l 1
EndSplineSet
Validated: 1
EndChar

StartChar: H
Encoding: 43 72 43
Width: 705
GlyphClass: 1
Flags: MW
HStem: 0 21G<86 183 86 86 522 619 522 522> 320 84<183 522 183 522> 673 20G<86 183 183 183 522 619 619 619>
VStem: 86 97<0 320 0 404 404 693> 522 97<0 320 320 320 404 693 0 693>
LayerCount: 2
Fore
SplineSet
522 693 m 1
 619 693 l 1
 619 0 l 1
 522 0 l 1
 522 320 l 1
 183 320 l 1
 183 0 l 1
 86 0 l 1
 86 693 l 1
 183 693 l 1
 183 404 l 1
 522 404 l 1
 522 693 l 1
EndSplineSet
Validated: 1
EndChar

StartChar: I
Encoding: 44 73 44
Width: 269
GlyphClass: 1
Flags: MW
HStem: 0 21G<86 183 86 86> 673 20G<86 183 183 183>
VStem: 86 97<0 693 0 693>
LayerCount: 2
Fore
SplineSet
86 693 m 1
 183 693 l 1
 183 0 l 1
 86 0 l 1
 86 693 l 1
EndSplineSet
Validated: 1
EndChar

StartChar: J
Encoding: 45 74 45
Width: 500
GlyphClass: 1
Flags: MW
HStem: -15 85<177.5 208 167.5 211.5> 673 20G<322 419 419 419>
VStem: 322 97<232 693>
LayerCount: 2
Fore
SplineSet
419 223 m 2
 419 190 416 159 408 130 c 0
 402 101 389 76 372 54 c 0
 354 33 330 16 300 4 c 0
 271 -9 234 -15 189 -15 c 0
 166 -15 146 -13 126 -10 c 0
 108 -6 90 -1 75 4 c 0
 60 10 46 16 35 22 c 0
 24 29 15 35 8 41 c 1
 46 118 l 1
 60 108 78 98 100 86 c 0
 123 76 151 70 184 70 c 0
 232 70 267 82 289 106 c 0
 311 131 322 173 322 232 c 2
 322 693 l 1
 419 693 l 1
 419 223 l 2
EndSplineSet
Validated: 1
EndChar

StartChar: K
Encoding: 46 75 46
Width: 629
GlyphClass: 1
Flags: MW
HStem: 0 21G<86 183 86 86 509 623 509 509> 673 20G<86 183 183 183 482 599 599 599>
VStem: 86 97<0 329 0 387 387 693>
LayerCount: 2
Fore
SplineSet
599 693 m 1
 578 670 555 645 529 618 c 0
 503 590 476 562 448 532 c 0
 419 504 391 475 363 447 c 0
 335 419 309 393 284 369 c 1
 313 349 343 324 375 295 c 0
 407 266 438 234 469 201 c 0
 500 168 528 134 556 99 c 0
 582 64 605 31 623 0 c 1
 509 0 l 1
 489 31 466 63 440 94 c 0
 414 126 386 156 358 186 c 0
 328 214 299 241 270 266 c 0
 240 291 211 312 183 329 c 1
 183 0 l 1
 86 0 l 1
 86 693 l 1
 183 693 l 1
 183 387 l 1
 206 409 232 434 260 462 c 0
 288 489 316 517 343 545 c 0
 370 573 396 600 420 626 c 0
 445 651 465 674 482 693 c 1
 599 693 l 1
EndSplineSet
Validated: 1
EndChar

StartChar: L
Encoding: 47 76 47
Width: 519
GlyphClass: 1
Flags: MW
HStem: 0 84<183 503 183 503> 673 20G<86 183 183 183>
VStem: 86 97<84 693 84 693 84 693>
LayerCount: 2
Fore
SplineSet
503 84 m 1
 503 0 l 1
 86 0 l 1
 86 693 l 1
 183 693 l 1
 183 84 l 1
 503 84 l 1
EndSplineSet
Validated: 1
EndChar

StartChar: M
Encoding: 48 77 48
Width: 871
GlyphClass: 1
Flags: MW
HStem: 0 21G<67 162 67 67 710 710 710 805> 673 20G<118 203 203 203 669 754 754 754>
VStem: 67 95<0 0> 710 95<0 0>
LayerCount: 2
Fore
SplineSet
397 96 m 1
 390 112 382 132 370 157 c 0
 360 182 348 208 335 237 c 0
 322 266 309 295 294 326 c 0
 280 356 267 384 254 412 c 0
 241 438 230 463 218 484 c 0
 208 505 199 522 192 533 c 1
 185 454 179 369 174 278 c 0
 169 186 165 93 162 0 c 1
 67 0 l 1
 70 60 73 120 76 182 c 0
 79 242 83 302 88 362 c 0
 92 420 96 478 102 534 c 0
 106 590 112 643 118 693 c 1
 203 693 l 1
 221 664 240 629 261 589 c 0
 282 549 302 507 323 464 c 0
 344 420 364 376 383 332 c 0
 402 289 420 249 436 213 c 1
 452 249 470 289 489 332 c 0
 508 376 528 420 549 464 c 0
 570 507 590 549 611 589 c 0
 632 629 651 664 669 693 c 1
 754 693 l 1
 777 470 794 239 805 0 c 1
 710 0 l 1
 707 93 703 186 698 278 c 0
 693 369 687 454 680 533 c 1
 673 522 664 505 654 484 c 0
 642 463 631 438 618 412 c 0
 605 384 592 356 578 326 c 0
 563 295 550 266 537 237 c 0
 524 208 512 182 502 157 c 0
 490 132 482 112 475 96 c 1
 397 96 l 1
EndSplineSet
Validated: 1
EndChar

StartChar: N
Encoding: 49 78 49
Width: 728
GlyphClass: 1
Flags: MW
HStem: 0 21G<86 181 86 86 561 642 561 561> 673 20G<86 163 163 163 547 642 642 642>
VStem: 86 95<0 541 0 693> 547 95<180 693 0 693>
LayerCount: 2
Fore
SplineSet
561 0 m 1
 546 25 530 52 510 83 c 0
 492 114 471 146 449 178 c 0
 427 212 404 245 380 279 c 0
 357 313 333 346 310 378 c 0
 287 409 264 439 242 467 c 0
 220 495 200 520 181 541 c 1
 181 0 l 1
 86 0 l 1
 86 693 l 1
 163 693 l 1
 194 660 228 621 264 576 c 0
 299 532 334 486 370 440 c 0
 404 392 438 346 468 301 c 0
 500 256 526 215 547 180 c 1
 547 693 l 1
 642 693 l 1
 642 0 l 1
 561 0 l 1
EndSplineSet
Validated: 1
EndChar

StartChar: O
Encoding: 50 79 50
Width: 778
GlyphClass: 1
Flags: MW
HStem: -15 85<371.5 406.5 371.5 413.5> 624 85<371.5 406.5>
VStem: 58 102<326 368 326 376.5> 617 103<326 368>
LayerCount: 2
Fore
SplineSet
58 347 m 0
 58 406 67 459 84 504 c 0
 102 549 126 587 156 618 c 0
 187 648 222 671 262 686 c 0
 303 701 346 709 391 709 c 0
 436 709 478 701 518 686 c 0
 557 671 592 648 622 618 c 0
 652 587 676 549 694 504 c 0
 711 459 720 406 720 347 c 0
 720 288 711 235 694 190 c 0
 676 145 652 107 622 76 c 0
 592 46 557 23 518 8 c 0
 478 -7 436 -15 391 -15 c 0
 346 -15 303 -7 262 8 c 0
 222 23 187 46 156 76 c 0
 126 107 102 145 84 190 c 0
 67 235 58 288 58 347 c 0
160 347 m 0
 160 305 165 267 176 232 c 0
 187 198 202 169 222 145 c 0
 241 121 265 102 294 90 c 0
 322 76 354 70 389 70 c 0
 424 70 456 76 484 90 c 0
 512 102 536 121 556 145 c 0
 575 169 590 198 601 232 c 0
 612 267 617 305 617 347 c 0
 617 389 612 427 601 462 c 0
 590 496 575 525 556 549 c 0
 536 573 512 592 484 604 c 0
 456 618 424 624 389 624 c 0
 354 624 322 618 294 604 c 0
 265 592 241 573 222 549 c 0
 202 525 187 496 176 462 c 0
 165 427 160 389 160 347 c 0
EndSplineSet
Validated: 1
EndChar

StartChar: P
Encoding: 51 80 51
Width: 608
GlyphClass: 1
Flags: MW
HStem: 0 21G<86 183 86 86> 257 83<183 256 256 260 183 256> 615 85<257.5 291>
VStem: 86 97<0 257 0 340 340 612> 471 102<466 493.5>
LayerCount: 2
Fore
SplineSet
270 700 m 0
 367 700 442 682 494 644 c 0
 547 608 573 552 573 479 c 0
 573 439 566 405 552 376 c 0
 537 348 516 325 490 308 c 0
 462 290 430 277 391 269 c 0
 352 261 309 257 260 257 c 2
 183 257 l 1
 183 0 l 1
 86 0 l 1
 86 683 l 1
 113 690 144 694 178 696 c 0
 211 699 242 700 270 700 c 0
278 615 m 0
 237 615 205 614 183 612 c 1
 183 340 l 1
 256 340 l 2
 289 340 319 342 346 346 c 0
 373 351 395 358 414 368 c 0
 432 379 446 393 456 411 c 0
 466 429 471 452 471 480 c 0
 471 507 466 529 456 546 c 0
 445 563 431 577 414 588 c 0
 396 598 375 605 352 609 c 0
 329 613 304 615 278 615 c 0
EndSplineSet
Validated: 1
EndChar

StartChar: Q
Encoding: 52 81 52
Width: 778
GlyphClass: 1
Flags: MW
HStem: -185 76<648 671> 624 85<371.5 406.5>
VStem: 58 102<326 368 326 376.5> 617 103<326 368>
LayerCount: 2
Fore
SplineSet
58 347 m 0
 58 406 67 459 84 504 c 0
 102 549 126 587 156 618 c 0
 187 648 222 671 262 686 c 0
 303 701 346 709 391 709 c 0
 436 709 478 701 518 686 c 0
 557 671 592 648 622 618 c 0
 652 587 676 549 694 504 c 0
 711 459 720 406 720 347 c 0
 720 295 713 249 700 208 c 0
 687 167 668 132 644 102 c 0
 621 73 593 49 562 30 c 0
 530 12 496 0 460 -7 c 1
 461 -22 468 -36 480 -48 c 0
 494 -59 510 -69 530 -77 c 0
 550 -85 572 -92 597 -97 c 0
 622 -102 646 -106 671 -109 c 1
 648 -185 l 1
 613 -180 580 -174 548 -166 c 0
 517 -159 488 -149 462 -136 c 0
 437 -123 415 -107 398 -88 c 0
 381 -68 369 -43 363 -14 c 1
 321 -11 281 -2 244 16 c 0
 207 32 174 56 147 86 c 0
 120 117 98 154 82 197 c 0
 66 240 58 290 58 347 c 0
160 347 m 0
 160 305 165 267 176 232 c 0
 187 198 202 169 222 145 c 0
 241 121 265 102 294 90 c 0
 322 76 354 70 389 70 c 0
 424 70 456 76 484 90 c 0
 512 102 536 121 556 145 c 0
 575 169 590 198 601 232 c 0
 612 267 617 305 617 347 c 0
 617 389 612 427 601 462 c 0
 590 496 575 525 556 549 c 0
 536 573 512 592 484 604 c 0
 456 618 424 624 389 624 c 0
 354 624 322 618 294 604 c 0
 265 592 241 573 222 549 c 0
 202 525 187 496 176 462 c 0
 165 427 160 389 160 347 c 0
EndSplineSet
Validated: 1
EndChar

StartChar: R
Encoding: 53 82 53
Width: 629
GlyphClass: 1
Flags: MW
HStem: 0 21G<86 183 86 86 505 611 505 505> 271 80<183 252 252 268.5 183 270 183 252 183 298> 615 85<257.5 291>
VStem: 86 97<0 271 0 351 351 612> 467 102<468 495>
LayerCount: 2
Fore
SplineSet
425 290 m 1
 436 277 449 259 466 238 c 0
 482 216 499 192 516 166 c 0
 533 139 550 112 568 83 c 0
 584 54 599 27 611 0 c 1
 505 0 l 1
 492 25 477 51 462 77 c 0
 446 103 430 128 414 152 c 0
 398 175 382 197 366 218 c 0
 351 239 337 257 324 272 c 1
 315 271 306 271 298 271 c 2
 270 271 l 1
 183 271 l 1
 183 0 l 1
 86 0 l 1
 86 683 l 1
 113 690 144 694 178 696 c 0
 211 699 242 700 270 700 c 0
 367 700 442 682 492 645 c 0
 544 608 569 554 569 481 c 0
 569 435 557 396 532 363 c 0
 508 330 472 306 425 290 c 1
278 615 m 0
 237 615 205 614 183 612 c 1
 183 351 l 1
 252 351 l 2
 285 351 315 353 342 356 c 0
 369 359 391 366 410 375 c 0
 428 384 442 398 452 414 c 0
 462 432 467 454 467 482 c 0
 467 508 462 530 452 547 c 0
 442 564 428 578 412 588 c 0
 394 598 374 605 352 609 c 0
 328 613 304 615 278 615 c 0
EndSplineSet
Validated: 1
EndChar

StartChar: S
Encoding: 54 83 54
Width: 532
GlyphClass: 1
Flags: MW
HStem: -15 84<233.5 287.5> 625 84<272.5 300.5>
VStem: 49 100<517.5 535.5 517.5 546.5> 399 102<143.5 183.5>
LayerCount: 2
Fore
SplineSet
247 69 m 0
 348 69 399 104 399 173 c 0
 399 194 394 212 386 228 c 0
 376 242 364 256 349 266 c 0
 334 278 316 287 296 295 c 0
 277 303 256 311 234 319 c 0
 209 328 185 338 162 348 c 0
 139 360 120 372 103 388 c 0
 86 402 73 420 64 441 c 0
 54 462 49 487 49 516 c 0
 49 577 70 624 111 658 c 0
 152 692 209 709 282 709 c 0
 324 709 362 704 396 696 c 0
 431 686 456 677 472 666 c 1
 441 587 l 1
 427 596 406 604 378 612 c 0
 351 621 319 625 282 625 c 0
 263 625 246 623 230 619 c 0
 214 615 200 609 188 601 c 0
 176 593 166 583 160 570 c 0
 152 558 149 544 149 527 c 0
 149 508 153 493 160 480 c 0
 167 467 178 456 191 446 c 0
 204 437 220 428 238 420 c 0
 255 412 275 404 296 396 c 0
 326 384 354 372 378 360 c 0
 404 348 425 334 444 317 c 0
 462 300 476 280 486 258 c 0
 496 234 501 207 501 174 c 0
 501 113 479 67 434 34 c 0
 390 1 328 -15 247 -15 c 0
 220 -15 194 -13 172 -10 c 0
 148 -6 128 -2 110 4 c 0
 92 8 76 14 64 20 c 0
 50 25 40 30 33 34 c 1
 62 114 l 1
 77 105 101 96 132 85 c 0
 163 74 202 69 247 69 c 0
EndSplineSet
Validated: 1
EndChar

StartChar: T
Encoding: 55 84 55
Width: 565
GlyphClass: 1
Flags: MW
HStem: 0 21G<234 331 234 234> 609 84<16 234 16 549 331 549 331 331>
VStem: 234 97<0 609 0 609>
LayerCount: 2
Fore
SplineSet
549 693 m 1
 549 609 l 1
 331 609 l 1
 331 0 l 1
 234 0 l 1
 234 609 l 1
 16 609 l 1
 16 693 l 1
 549 693 l 1
EndSplineSet
Validated: 1
EndChar

StartChar: U
Encoding: 56 85 56
Width: 688
GlyphClass: 1
Flags: MW
HStem: -15 86<321.5 356.5 319.5 366.5> 673 20G<81 178 178 178 510 607 607 607>
VStem: 81 97<258 269 269 693> 510 97<269 693>
LayerCount: 2
Fore
SplineSet
344 -15 m 0
 299 -15 259 -8 226 6 c 0
 193 20 165 39 144 64 c 0
 123 88 107 117 96 150 c 0
 86 183 81 219 81 258 c 2
 81 693 l 1
 178 693 l 1
 178 269 l 2
 178 200 193 149 224 118 c 0
 255 87 295 71 344 71 c 0
 369 71 391 75 412 82 c 0
 432 90 449 102 464 118 c 0
 479 134 490 154 498 180 c 0
 506 204 510 234 510 269 c 2
 510 693 l 1
 607 693 l 1
 607 258 l 2
 607 219 602 183 592 150 c 0
 581 117 565 88 544 64 c 0
 522 39 494 20 462 6 c 0
 428 -8 389 -15 344 -15 c 0
EndSplineSet
Validated: 1
EndChar

StartChar: V
Encoding: 57 86 57
Width: 656
GlyphClass: 1
Flags: MW
HStem: 0 21G<283 374 283 283> 673 20G<10 117 117 117 542 646 646 646>
LayerCount: 2
Fore
SplineSet
646 693 m 1
 621 620 596 552 574 490 c 0
 550 427 528 368 506 312 c 0
 484 256 462 202 440 152 c 0
 419 100 397 50 374 0 c 1
 283 0 l 1
 260 50 238 100 216 152 c 0
 195 202 173 256 150 312 c 0
 128 368 105 427 82 490 c 0
 59 552 35 620 10 693 c 1
 117 693 l 1
 153 588 188 486 223 389 c 0
 258 292 293 200 330 115 c 1
 367 200 402 291 437 388 c 0
 472 486 507 588 542 693 c 1
 646 693 l 1
EndSplineSet
Validated: 1
EndChar

StartChar: W
Encoding: 58 87 58
Width: 929
GlyphClass: 1
Flags: MW
HStem: 0 21G<197 294 197 197 635 635 635 732> 673 20G<28 130 130 130 802 901 901 901>
LayerCount: 2
Fore
SplineSet
465 470 m 1
 437 381 409 298 380 222 c 0
 351 146 323 72 294 0 c 1
 197 0 l 1
 162 102 130 210 104 323 c 0
 76 436 51 560 28 693 c 1
 130 693 l 1
 139 641 149 589 159 537 c 0
 169 485 179 434 190 386 c 0
 201 336 211 290 222 245 c 0
 233 200 244 159 255 121 c 1
 282 191 310 268 340 352 c 0
 370 435 398 522 424 611 c 1
 508 611 l 1
 534 522 562 435 593 352 c 0
 624 268 652 191 679 121 c 1
 690 158 700 199 711 244 c 0
 722 289 732 336 742 384 c 0
 753 434 763 484 773 536 c 0
 783 589 793 641 802 693 c 1
 901 693 l 1
 877 560 852 436 824 323 c 0
 798 210 767 102 732 0 c 1
 635 0 l 1
 606 72 577 146 549 222 c 0
 521 298 493 381 465 470 c 1
EndSplineSet
Validated: 1
EndChar

StartChar: X
Encoding: 59 88 59
Width: 631
GlyphClass: 1
Flags: MW
HStem: 0 21G<23 130 23 23 502 611 502 502> 673 20G<32 144 144 144 484 595 595 595>
LayerCount: 2
Fore
SplineSet
502 0 m 1
 492 20 480 42 466 66 c 0
 452 91 437 116 420 142 c 0
 403 169 386 195 368 222 c 0
 350 248 333 273 316 296 c 1
 299 273 282 248 264 222 c 0
 246 195 229 169 212 142 c 0
 196 116 181 91 166 66 c 0
 152 42 140 20 130 0 c 1
 23 0 l 1
 53 59 88 118 128 179 c 0
 167 240 209 302 254 366 c 1
 32 693 l 1
 144 693 l 1
 315 435 l 1
 484 693 l 1
 595 693 l 1
 377 370 l 1
 422 305 465 242 505 181 c 0
 545 120 580 59 611 0 c 1
 502 0 l 1
EndSplineSet
Validated: 1
EndChar

StartChar: Y
Encoding: 60 89 60
Width: 598
GlyphClass: 1
Flags: MW
HStem: 0 21G<251 251 251 348> 673 20G<6 120 120 120 484 592 592 592>
VStem: 251 97<0 278 278 278>
LayerCount: 2
Fore
SplineSet
251 0 m 1
 251 278 l 1
 205 349 162 420 121 489 c 0
 80 558 42 626 6 693 c 1
 120 693 l 1
 145 638 174 583 205 526 c 0
 236 470 269 416 302 364 c 1
 335 416 367 470 398 526 c 0
 429 583 458 638 484 693 c 1
 592 693 l 1
 556 626 518 558 477 490 c 0
 436 420 393 351 348 280 c 1
 348 0 l 1
 251 0 l 1
EndSplineSet
Validated: 1
EndChar

StartChar: Z
Encoding: 61 90 61
Width: 573
GlyphClass: 1
Flags: MW
HStem: 0 83<146 536 146 536> 610 83<51 407 51 526>
LayerCount: 2
Fore
SplineSet
526 616 m 1
 511 599 493 578 472 554 c 0
 452 529 431 502 408 472 c 0
 385 443 362 412 338 378 c 0
 314 346 290 312 268 278 c 0
 244 245 223 211 202 178 c 0
 181 145 163 113 146 83 c 1
 536 83 l 1
 536 0 l 1
 33 0 l 1
 33 65 l 1
 47 92 64 121 82 153 c 0
 102 185 122 218 144 251 c 0
 165 284 188 318 211 352 c 0
 234 386 258 419 280 450 c 0
 304 481 326 511 348 538 c 0
 369 565 389 589 407 610 c 1
 51 610 l 1
 51 693 l 1
 526 693 l 1
 526 616 l 1
EndSplineSet
Validated: 1
EndChar

StartChar: bracketleft
Encoding: 62 91 62
Width: 329
GlyphClass: 1
Flags: MW
HStem: -185 73<183 321 183 321> 710 73<183 321 183 183>
VStem: 96 87<-112 710 -112 783 -112 783> 96 225<-185 -112 710 783>
LayerCount: 2
Fore
SplineSet
96 783 m 1xd0
 321 783 l 1
 321 710 l 1xd0
 183 710 l 1
 183 -112 l 1xe0
 321 -112 l 1
 321 -185 l 1
 96 -185 l 1
 96 783 l 1xd0
EndSplineSet
Validated: 1
EndChar

StartChar: backslash
Encoding: 63 92 63
Width: 384
GlyphClass: 1
Flags: MW
HStem: -185 21G<313 408 313 313>
LayerCount: 2
Fore
SplineSet
-24 783 m 1
 69 783 l 1
 408 -185 l 1
 313 -185 l 1
 -24 783 l 1
EndSplineSet
Validated: 1
EndChar

StartChar: bracketright
Encoding: 64 93 64
Width: 329
GlyphClass: 1
Flags: MW
HStem: -185 73<8 146 8 233 8 146> 710 73<8 146 8 233>
VStem: 8 225<-185 -112 -112 -112 710 783> 146 87<-112 710 710 710>
LayerCount: 2
Fore
SplineSet
233 -185 m 1xe0
 8 -185 l 1
 8 -112 l 1xe0
 146 -112 l 1
 146 710 l 1xd0
 8 710 l 1
 8 783 l 1
 233 783 l 1
 233 -185 l 1xe0
EndSplineSet
Validated: 1
EndChar

StartChar: asciicircum
Encoding: 65 94 65
Width: 564
GlyphClass: 1
Flags: MW
HStem: 673 20G<241 323 323 323>
LayerCount: 2
Fore
SplineSet
323 693 m 1
 517 353 l 1
 443 315 l 1
 282 597 l 1
 121 315 l 1
 47 353 l 1
 241 693 l 1
 323 693 l 1
EndSplineSet
Validated: 1
EndChar

StartChar: underscore
Encoding: 66 95 66
Width: 492
GlyphClass: 1
Flags: MW
HStem: -185 79<-4 496 -4 496>
LayerCount: 2
Fore
SplineSet
-4 -106 m 1
 496 -106 l 1
 496 -185 l 1
 -4 -185 l 1
 -4 -106 l 1
EndSplineSet
Validated: 1
EndChar

StartChar: grave
Encoding: 67 96 67
Width: 376
GlyphClass: 1
Flags: MW
HStem: 580 196<121 202>
VStem: 61 188<622 717>
LayerCount: 2
Fore
SplineSet
121 776 m 1
 249 622 l 1
 202 580 l 1
 61 717 l 1
 121 776 l 1
EndSplineSet
Validated: 1
EndChar

StartChar: a
Encoding: 68 97 68
Width: 522
GlyphClass: 1
Flags: MW
HStem: -11 78<237.5 255.5> 241 75<263 266.5 247.5 280.5> 453 80<231.5 252>
VStem: 43 94<140 165 139.5 169.5> 357 91<74 229 229 229 303 329 329 334 9 336.5>
LayerCount: 2
Fore
SplineSet
256 67 m 0
 278 67 298 68 314 68 c 0
 332 70 346 71 357 74 c 1
 357 229 l 1
 350 232 340 235 324 238 c 0
 310 240 291 241 270 241 c 0
 256 241 241 240 226 238 c 0
 210 236 196 232 182 226 c 0
 170 219 159 210 150 200 c 0
 141 188 137 174 137 156 c 0
 137 123 148 100 169 86 c 0
 190 74 219 67 256 67 c 0
248 533 m 0
 285 533 317 528 342 518 c 0
 368 509 389 495 404 478 c 0
 420 460 431 439 438 414 c 0
 445 390 448 363 448 334 c 2
 448 9 l 1
 440 8 429 6 414 4 c 0
 400 1 384 -1 366 -3 c 0
 348 -5 328 -7 308 -8 c 0
 286 -10 266 -11 245 -11 c 0
 216 -11 189 -8 164 -2 c 0
 139 4 118 14 100 26 c 0
 82 40 68 57 58 78 c 0
 48 99 43 125 43 155 c 0
 43 184 49 208 60 229 c 0
 72 250 88 266 108 279 c 0
 128 292 151 301 178 307 c 0
 205 313 233 316 262 316 c 0
 271 316 281 316 291 314 c 0
 301 314 310 312 320 310 c 0
 328 309 336 307 343 306 c 0
 350 305 354 304 357 303 c 1
 357 329 l 2
 357 344 355 360 352 374 c 0
 349 390 343 403 334 414 c 0
 325 426 314 436 298 442 c 0
 284 450 264 453 240 453 c 0
 209 453 182 451 160 446 c 0
 136 442 119 438 108 433 c 1
 97 510 l 1
 109 515 129 520 157 526 c 0
 185 530 215 533 248 533 c 0
EndSplineSet
Validated: 1
EndChar

StartChar: b
Encoding: 69 98 69
Width: 589
GlyphClass: 1
Flags: MW
HStem: -12 82<263.5 297> 450 82<289 305.5> 756 20G<173 173>
VStem: 80 93<81 81 81 410 497 760 760 760> 441 97<239 273.5>
LayerCount: 2
Fore
SplineSet
173 497 m 1
 184 504 202 512 224 520 c 0
 248 528 274 532 304 532 c 0
 341 532 374 525 404 512 c 0
 432 499 457 480 477 456 c 0
 497 432 512 403 522 370 c 0
 533 337 538 300 538 260 c 0
 538 218 532 180 520 146 c 0
 507 113 490 84 467 61 c 0
 444 38 417 20 385 7 c 0
 353 -6 317 -12 277 -12 c 0
 234 -12 195 -9 162 -3 c 0
 129 3 101 9 80 15 c 1
 80 760 l 1
 173 776 l 1
 173 497 l 1
173 81 m 1
 182 78 196 76 212 74 c 0
 230 71 251 70 276 70 c 0
 326 70 366 86 396 120 c 0
 426 152 441 199 441 260 c 0
 441 287 438 312 433 335 c 0
 428 358 419 378 407 396 c 0
 395 412 380 426 360 436 c 0
 342 445 319 450 292 450 c 0
 267 450 243 446 222 437 c 0
 201 428 184 419 173 410 c 1
 173 81 l 1
EndSplineSet
Validated: 1
EndChar

StartChar: c
Encoding: 70 99 70
Width: 465
GlyphClass: 1
Flags: MW
HStem: -12 82<302.5 312.5> 451 82<283 311.5 281 319.5>
VStem: 51 97<245 279>
LayerCount: 2
Fore
SplineSet
306 -12 m 0
 264 -12 227 -5 196 8 c 0
 164 21 137 40 116 64 c 0
 94 88 78 116 67 150 c 0
 56 182 51 219 51 259 c 0
 51 299 57 336 68 369 c 0
 80 402 97 431 118 456 c 0
 139 480 166 499 196 512 c 0
 228 526 262 533 300 533 c 0
 323 533 347 531 370 527 c 0
 393 523 416 517 437 508 c 1
 416 429 l 1
 402 436 386 441 368 445 c 0
 349 449 330 451 309 451 c 0
 257 451 217 435 190 402 c 0
 162 369 148 322 148 259 c 0
 148 231 151 205 158 182 c 0
 164 159 174 139 188 122 c 0
 201 105 219 92 240 84 c 0
 261 74 287 70 318 70 c 0
 343 70 365 72 385 77 c 0
 405 82 421 87 432 92 c 1
 445 14 l 1
 440 11 432 8 422 4 c 0
 412 2 401 -1 388 -4 c 0
 375 -6 362 -8 348 -10 c 0
 333 -11 319 -12 306 -12 c 0
EndSplineSet
Validated: 1
EndChar

StartChar: d
Encoding: 71 100 71
Width: 589
GlyphClass: 1
Flags: MW
HStem: -12 82<292 325.5 288 333.5> 450 82<283.5 300 266.5 309.5> 756 20G<509 509>
VStem: 51 97<239 273.5 229.5 280> 416 93<81 410 410 410 497 760 760 760>
LayerCount: 2
Fore
SplineSet
416 410 m 1
 405 419 388 428 367 437 c 0
 346 446 322 450 297 450 c 0
 270 450 248 445 228 436 c 0
 210 426 194 412 182 396 c 0
 170 378 161 358 156 335 c 0
 151 312 148 287 148 260 c 0
 148 199 163 152 193 120 c 0
 223 86 263 70 313 70 c 0
 338 70 360 71 376 74 c 0
 394 76 407 78 416 81 c 1
 416 410 l 1
416 760 m 1
 509 776 l 1
 509 15 l 1
 488 9 460 3 427 -3 c 0
 394 -9 355 -12 312 -12 c 0
 272 -12 236 -6 204 7 c 0
 172 20 145 38 122 61 c 0
 99 84 82 113 70 146 c 0
 57 180 51 218 51 260 c 0
 51 300 56 337 66 370 c 0
 77 403 92 432 112 456 c 0
 132 480 156 499 186 512 c 0
 214 525 248 532 285 532 c 0
 315 532 342 528 364 520 c 0
 388 512 405 504 416 497 c 1
 416 760 l 1
EndSplineSet
Validated: 1
EndChar

StartChar: e
Encoding: 72 101 72
Width: 559
GlyphClass: 1
Flags: MW
HStem: -12 82<294 331> 235 75<150 408 150 504 148 408> 454 79<276.5 306>
VStem: 51 97<235 282> 408 97<249 310>
LayerCount: 2
Fore
SplineSet
51 259 m 0
 51 305 58 345 71 380 c 0
 84 414 102 442 124 465 c 0
 146 488 171 505 200 516 c 0
 229 527 258 533 288 533 c 0
 358 533 412 511 449 468 c 0
 486 424 505 357 505 268 c 2
 505 252 l 2
 505 246 505 240 504 235 c 1
 148 235 l 1
 152 181 168 140 195 112 c 0
 222 84 265 70 323 70 c 0
 356 70 383 73 406 78 c 0
 428 84 445 90 456 95 c 1
 469 17 l 1
 458 11 438 5 410 -2 c 0
 381 -9 349 -12 313 -12 c 0
 268 -12 228 -5 196 8 c 0
 162 22 135 41 114 65 c 0
 93 89 77 118 66 150 c 0
 56 184 51 220 51 259 c 0
408 310 m 1
 408.041739257 311.75304879 408.062572527 313.492160255 408.062572527 315.217479829 c 0
 408.062572527 354.827816476 397.081736348 387.168699193 376 414 c 0
 355 440 325 454 287 454 c 0
 266 454 247 450 230 442 c 0
 214 433 200 422 189 409 c 0
 178 396 169 380 162 363 c 0
 156 346 152 328 150 310 c 1
 408 310 l 1
EndSplineSet
Validated: 1
EndChar

StartChar: f
Encoding: 73 102 73
Width: 386
GlyphClass: 1
Flags: MW
HStem: 0 21G<80 173 80 80> 442 78<173 373 173 373> 696 80<268.5 296.5 248 300.5>
VStem: 80 93<0 442 520 565>
LayerCount: 2
Fore
SplineSet
283 776 m 0
 310 776 334 774 354 770 c 0
 373 766 387 762 395 759 c 1
 378 679 l 1
 370 683 359 687 344 690 c 0
 329 694 311 696 290 696 c 0
 247 696 216 684 199 660 c 0
 182 637 173 605 173 565 c 2
 173 520 l 1
 373 520 l 1
 373 442 l 1
 173 442 l 1
 173 0 l 1
 80 0 l 1
 80 567 l 2
 80 634 96 685 129 722 c 0
 162 758 213 776 283 776 c 0
EndSplineSet
Validated: 1
EndChar

StartChar: g
Encoding: 74 103 74
Width: 578
GlyphClass: 1
Flags: MW
HStem: -188 80<235.5 277.5 235.5 290> -161 81<80 97> 19 80<279 294.5> 449 82<283.5 317.5>
VStem: 51 97<255 290> 405 93<134 438 438 438>
LayerCount: 2
Fore
SplineSet
406 52 m 1xbc
 398 47 382 40 360 32 c 0
 336 23 310 19 279 19 c 0
 248 19 218 24 190 34 c 0
 163 44 139 60 118 80 c 0
 97 102 81 128 69 159 c 0
 57 190 51 228 51 271 c 0
 51 309 57 344 68 376 c 0
 79 407 96 434 118 458 c 0
 139 480 166 498 197 512 c 0
 228 524 264 531 303 531 c 0
 346 531 384 528 416 522 c 0
 449 515 476 509 498 504 c 1
 498 40 l 2
 498 -40 477 -98 436 -134 c 0
 395 -170 332 -188 248 -188 c 0xbc
 215 -188 184 -185 156 -180 c 0
 126 -175 101 -168 80 -161 c 1
 97 -80 l 1x7c
 116 -87 138 -94 166 -100 c 0
 192 -105 221 -108 250 -108 c 0
 305 -108 345 -97 370 -75 c 0
 394 -53 406 -18 406 30 c 2
 406 52 l 1xbc
405 438 m 1
 396 441 383 443 368 446 c 0
 352 448 331 449 304 449 c 0
 254 449 216 433 188 400 c 0
 162 367 148 324 148 270 c 0
 148 240 152 214 160 193 c 0
 167 172 178 154 190 140 c 0
 204 126 218 116 236 109 c 0
 252 102 270 99 288 99 c 0
 313 99 335 102 356 110 c 0
 377 116 393 125 405 134 c 1
 405 438 l 1
EndSplineSet
Validated: 1
EndChar

StartChar: h
Encoding: 75 104 75
Width: 571
GlyphClass: 1
Flags: MW
HStem: 0 21G<80 80 80 173 407 407 407 500> 449 82<277.5 289.5> 756 20G<173 173>
VStem: 80 93<0 432 510 760 760 760> 407 93<0 272 272 288>
LayerCount: 2
Fore
SplineSet
80 0 m 1
 80 760 l 1
 173 776 l 1
 173 510 l 1
 190 517 209 522 228 526 c 0
 248 529 268 531 287 531 c 0
 328 531 363 525 390 514 c 0
 417 502 439 486 456 464 c 0
 472 444 483 418 490 389 c 0
 497 360 500 327 500 292 c 2
 500 0 l 1
 407 0 l 1
 407 272 l 2
 407 304 405 331 400 354 c 0
 396 377 389 395 379 409 c 0
 369 423 356 433 339 440 c 0
 322 446 302 449 277 449 c 0
 267 449 257 448 246 447 c 0
 235 446 225 444 216 442 c 0
 206 441 197 439 190 437 c 0
 182 435 176 433 173 432 c 2
 173 0 l 1
 80 0 l 1
EndSplineSet
Validated: 1
EndChar

StartChar: i
Encoding: 76 105 76
Width: 253
GlyphClass: 1
Flags: MW
HStem: 0 21G<80 173 80 80> 500 20G<80 173 173 173> 614 122<117.5 134.5>
VStem: 66 120<665.5 684.5> 80 93<0 520>
LayerCount: 2
Fore
SplineSet
173 0 m 1xe8
 80 0 l 1
 80 520 l 1
 173 520 l 1
 173 0 l 1xe8
126 614 m 0
 109 614 95 620 84 630 c 0
 72 642 66 656 66 675 c 0
 66 694 72 708 84 720 c 0
 95 730 109 736 126 736 c 0
 143 736 157 730 168 720 c 0
 180 708 186 694 186 675 c 0xf0
 186 656 180 642 168 630 c 0
 157 620 143 614 126 614 c 0
EndSplineSet
Validated: 1
EndChar

StartChar: j
Encoding: 77 106 77
Width: 253
GlyphClass: 1
Flags: MW
HStem: -187 80<-9 7 -12.5 24> 500 20G<80 173 173 173> 614 122<117.5 134.5>
VStem: 66 120<665.5 684.5> 80 93<9 10 10 520>
LayerCount: 2
Fore
SplineSet
-5 -187 m 0xe8
 -13 -187 -23 -186 -36 -184 c 0
 -49 -182 -59 -179 -68 -176 c 1
 -56 -100 l 1
 -49 -102 -42 -104 -33 -105 c 0
 -24 -106 -16 -107 -9 -107 c 0
 23 -107 46 -97 60 -78 c 0
 73 -58 80 -29 80 9 c 2
 80 520 l 1
 173 520 l 1
 173 10 l 2
 173 -57 158 -106 128 -138 c 0
 97 -171 53 -187 -5 -187 c 0xe8
126 614 m 0
 109 614 95 620 84 630 c 0
 72 642 66 656 66 675 c 0
 66 694 72 708 84 720 c 0
 95 730 109 736 126 736 c 0
 143 736 157 730 168 720 c 0
 180 708 186 694 186 675 c 0xf0
 186 656 180 642 168 630 c 0
 157 620 143 614 126 614 c 0
EndSplineSet
Validated: 1
EndChar

StartChar: k
Encoding: 78 107 78
Width: 522
GlyphClass: 1
Flags: MW
HStem: 0 21G<80 173 80 80 399 508 399 399> 500 20G<379 488 488 488> 756 20G<173 173>
VStem: 80 93<0 250 0 302 302 760 760 760>
LayerCount: 2
Fore
SplineSet
268 286 m 1
 288 271 309 252 332 229 c 0
 354 206 376 182 398 156 c 0
 419 129 440 102 459 76 c 0
 478 48 495 23 508 0 c 1
 399 0 l 1
 385 23 369 47 350 72 c 0
 332 96 313 119 293 142 c 0
 273 164 253 184 232 203 c 0
 211 222 192 237 173 250 c 1
 173 0 l 1
 80 0 l 1
 80 760 l 1
 173 776 l 1
 173 302 l 1
 226 355 l 2
 245 374 264 394 283 414 c 0
 302 434 319 453 336 472 c 0
 353 490 367 506 379 520 c 1
 488 520 l 1
 473 503 456 485 438 465 c 0
 420 445 401 425 382 404 c 0
 363 384 343 364 324 344 c 0
 304 323 285 304 268 286 c 1
EndSplineSet
Validated: 1
EndChar

StartChar: l
Encoding: 79 108 79
Width: 273
GlyphClass: 1
Flags: MW
HStem: -10 78<236 249> 756 20G<171 171>
VStem: 78 93<143.5 151 151 760 760 760>
LayerCount: 2
Fore
SplineSet
236 -10 m 1
 179 -9 138 4 114 27 c 0
 90 50 78 87 78 136 c 2
 78 760 l 1
 171 776 l 1
 171 151 l 2
 171 136 172 123 175 113 c 0
 178 103 182 95 188 89 c 0
 194 83 202 78 212 76 c 0
 222 72 234 70 249 68 c 1
 236 -10 l 1
EndSplineSet
Validated: 1
EndChar

StartChar: m
Encoding: 80 109 80
Width: 861
GlyphClass: 1
Flags: MW
HStem: 0 21G<80 173 80 80 387 480 387 387 694 787 694 694> 449 82<271.5 287 582.5 594.5>
VStem: 80 93<0 439 0 505 0 505> 387 93<0 272 272 287.5> 694 93<0 272 272 287.5>
CounterMasks: 1 38
LayerCount: 2
Fore
SplineSet
80 505 m 1
 101 510 130 516 164 522 c 0
 200 528 240 531 286 531 c 0
 319 531 347 526 370 518 c 0
 393 508 412 495 427 478 c 1
 432 481 439 486 449 492 c 0
 459 498 471 504 486 510 c 0
 501 515 517 520 535 524 c 0
 553 529 572 531 593 531 c 0
 633 531 666 525 691 514 c 0
 716 502 736 485 750 464 c 0
 765 443 774 417 780 388 c 0
 784 359 787 327 787 292 c 2
 787 0 l 1
 694 0 l 1
 694 272 l 2
 694 303 692 329 690 351 c 0
 686 373 681 391 672 406 c 0
 664 421 653 432 638 438 c 0
 624 446 606 449 583 449 c 0
 552 449 526 445 506 436 c 0
 485 428 471 421 464 414 c 1
 469 397 473 378 476 357 c 0
 479 336 480 315 480 292 c 2
 480 0 l 1
 387 0 l 1
 387 272 l 2
 387 303 385 329 382 351 c 0
 379 373 373 391 364 406 c 0
 356 421 345 432 330 438 c 0
 316 446 298 449 276 449 c 0
 267 449 257 449 246 448 c 0
 235 447 225 446 216 446 c 0
 206 444 197 443 189 442 c 0
 181 441 176 440 173 439 c 2
 173 0 l 1
 80 0 l 1
 80 505 l 1
EndSplineSet
Validated: 1
EndChar

StartChar: n
Encoding: 81 110 81
Width: 574
GlyphClass: 1
Flags: MW
HStem: 0 21G<80 173 80 80 407 500 407 407> 449 82<272 289.5>
VStem: 80 93<0 439 0 505 0 505> 407 93<0 272 272 288>
LayerCount: 2
Fore
SplineSet
80 505 m 1
 101 510 130 516 165 522 c 0
 200 528 241 531 287 531 c 0
 328 531 363 525 390 514 c 0
 417 502 439 486 456 464 c 0
 472 444 483 418 490 389 c 0
 497 360 500 327 500 292 c 2
 500 0 l 1
 407 0 l 1
 407 272 l 2
 407 304 405 331 400 354 c 0
 396 377 389 395 379 409 c 0
 369 423 356 433 339 440 c 0
 322 446 302 449 277 449 c 0
 267 449 257 449 246 448 c 0
 235 447 225 446 216 446 c 0
 206 444 197 443 190 442 c 0
 182 441 176 440 173 439 c 2
 173 0 l 1
 80 0 l 1
 80 505 l 1
EndSplineSet
Validated: 1
EndChar

StartChar: o
Encoding: 82 111 82
Width: 590
GlyphClass: 1
Flags: MW
HStem: -13 82<277.5 312.5> 451 82<277.5 312.5 277.5 317.5>
VStem: 51 97<239.5 280.5> 442 97<239.5 280.5 239.5 289.5>
LayerCount: 2
Fore
SplineSet
539 260 m 0
 539 219 533 181 521 148 c 0
 509 115 492 86 470 62 c 0
 449 38 423 20 393 6 c 0
 363 -6 330 -13 295 -13 c 0
 260 -13 227 -6 197 6 c 0
 167 20 141 38 120 62 c 0
 98 86 81 115 69 148 c 0
 57 181 51 219 51 260 c 0
 51 301 57 338 69 372 c 0
 81 405 98 434 120 458 c 0
 141 482 167 500 197 514 c 0
 227 526 260 533 295 533 c 0
 330 533 363 526 393 514 c 0
 423 500 449 482 470 458 c 0
 492 434 509 405 521 372 c 0
 533 338 539 301 539 260 c 0
442 260 m 0
 442 319 429 365 402 400 c 0
 376 434 340 451 295 451 c 0
 250 451 214 434 188 400 c 0
 161 365 148 319 148 260 c 0
 148 201 161 155 188 120 c 0
 214 86 250 69 295 69 c 0
 340 69 376 86 402 120 c 0
 429 155 442 201 442 260 c 0
EndSplineSet
Validated: 1
EndChar

StartChar: p
Encoding: 83 112 83
Width: 589
GlyphClass: 1
Flags: MW
HStem: -185 21G<80 173 80 80> -12 82<289 305.5 279.5 322.5> 448 83<262 297 255.5 301>
VStem: 80 93<-185 23 110 438> 441 97<245.5 280 239.5 289.5>
LayerCount: 2
Fore
SplineSet
441 259 m 0
 441 320 426 366 396 399 c 0
 366 432 326 448 276 448 c 0
 248 448 226 447 210 445 c 0
 195 443 182 441 173 438 c 1
 173 110 l 1
 184 101 201 92 222 83 c 0
 243 74 267 70 292 70 c 0
 319 70 342 75 360 84 c 0
 380 94 395 108 407 124 c 0
 419 142 428 162 433 184 c 0
 438 208 441 232 441 259 c 0
538 259 m 0
 538 220 533 183 522 150 c 0
 512 117 497 88 477 64 c 0
 457 40 432 21 404 8 c 0
 374 -5 341 -12 304 -12 c 0
 274 -12 248 -8 224 0 c 0
 202 8 184 16 173 23 c 1
 173 -185 l 1
 80 -185 l 1
 80 504 l 1
 102 509 130 515 162 522 c 0
 196 528 234 531 277 531 c 0
 317 531 353 525 385 512 c 0
 417 499 444 481 467 458 c 0
 490 435 507 406 520 372 c 0
 532 339 538 301 538 259 c 0
EndSplineSet
Validated: 1
EndChar

StartChar: q
Encoding: 84 113 84
Width: 589
GlyphClass: 1
Flags: MW
HStem: -185 21G<416 509 416 416> -12 82<283.5 300> 448 83<292 327>
VStem: 51 97<245.5 280> 416 93<-185 23 23 23 110 438 438 438>
LayerCount: 2
Fore
SplineSet
148 259 m 0
 148 232 151 208 156 184 c 0
 161 162 170 142 182 124 c 0
 194 108 210 94 228 84 c 0
 248 75 270 70 297 70 c 0
 322 70 346 74 367 83 c 0
 388 92 405 101 416 110 c 1
 416 438 l 1
 407 441 394 443 378 445 c 0
 363 447 341 448 313 448 c 0
 263 448 223 432 193 399 c 0
 163 366 148 320 148 259 c 0
51 259 m 0
 51 301 57 339 70 372 c 0
 82 406 99 435 122 458 c 0
 145 481 172 499 204 512 c 0
 236 525 272 531 312 531 c 0
 355 531 394 528 426 522 c 0
 460 515 487 509 509 504 c 1
 509 -185 l 1
 416 -185 l 1
 416 23 l 1
 405 16 388 8 364 0 c 0
 342 -8 315 -12 285 -12 c 0
 248 -12 214 -5 186 8 c 0
 156 21 132 40 112 64 c 0
 92 88 77 117 66 150 c 0
 56 183 51 220 51 259 c 0
EndSplineSet
Validated: 1
EndChar

StartChar: r
Encoding: 85 114 85
Width: 386
GlyphClass: 1
Flags: MW
HStem: 0 21G<80 173 80 80> 435 81<360 376> 450 81<251.5 271.5>
VStem: 80 93<0 437 0 498 0 498>
LayerCount: 2
Fore
SplineSet
272 531 m 0xb0
 280 531 289 530 300 530 c 0
 310 528 320 527 330 526 c 0
 340 524 349 522 358 520 c 0
 366 519 372 517 376 516 c 1
 360 435 l 1xd0
 353 438 340 441 324 444 c 0
 306 448 285 450 258 450 c 0
 241 450 224 448 206 444 c 0
 190 441 178 438 173 437 c 1
 173 0 l 1
 80 0 l 1
 80 498 l 1
 102 506 129 514 162 520 c 0
 195 528 231 531 272 531 c 0xb0
EndSplineSet
Validated: 1
EndChar

StartChar: s
Encoding: 86 115 86
Width: 446
GlyphClass: 1
Flags: MW
HStem: -12 79<181.5 220 181.5 234> 455 78<225 245.5 208.5 253>
VStem: 48 93<385.5 402 385.5 406> 313 94<119 141.5>
LayerCount: 2
Fore
SplineSet
201 67 m 0
 239 67 267 72 286 82 c 0
 304 92 313 108 313 130 c 0
 313 153 304 171 286 184 c 0
 268 197 238 212 197 229 c 0
 177 237 158 245 140 254 c 0
 121 262 105 272 92 283 c 0
 79 294 68 308 60 324 c 0
 52 340 48 360 48 383 c 0
 48 429 65 466 99 492 c 0
 133 520 179 533 238 533 c 0
 253 533 267 532 282 530 c 0
 297 529 310 527 323 524 c 0
 336 522 347 520 356 517 c 0
 366 514 374 512 379 510 c 1
 362 430 l 1
 352 435 336 441 315 446 c 0
 294 452 268 455 238 455 c 0
 212 455 189 450 170 440 c 0
 151 429 141 413 141 391 c 0
 141 380 143 370 148 361 c 0
 152 352 158 344 168 338 c 0
 176 330 188 324 201 318 c 0
 214 312 230 306 249 299 c 0
 274 290 296 280 315 272 c 0
 334 262 351 252 364 240 c 0
 378 228 389 214 396 196 c 0
 403 180 407 159 407 134 c 0
 407 86 389 50 354 25 c 0
 318 0 267 -12 201 -12 c 0
 155 -12 119 -8 93 0 c 0
 67 7 49 13 40 17 c 1
 57 97 l 1
 68 93 85 87 108 79 c 0
 131 71 162 67 201 67 c 0
EndSplineSet
Validated: 1
EndChar

StartChar: t
Encoding: 87 116 87
Width: 402
GlyphClass: 1
Flags: MW
HStem: -11 82<255 270> 442 78<167 364 167 364>
VStem: 74 93<201 202 202 442 520 665 665 665>
LayerCount: 2
Fore
SplineSet
167 520 m 1
 364 520 l 1
 364 442 l 1
 167 442 l 1
 167 202 l 2
 167 176 169 154 173 138 c 0
 177 120 183 107 191 98 c 0
 199 88 209 81 221 77 c 0
 233 73 247 71 263 71 c 0
 291 71 314 74 330 80 c 0
 348 87 359 91 366 94 c 1
 384 17 l 1
 375 12 358 6 335 0 c 0
 312 -8 285 -11 255 -11 c 0
 220 -11 190 -6 168 2 c 0
 144 12 126 25 112 43 c 0
 98 61 88 83 82 110 c 0
 77 136 74 166 74 201 c 2
 74 665 l 1
 167 681 l 1
 167 520 l 1
EndSplineSet
Validated: 1
EndChar

StartChar: u
Encoding: 88 117 88
Width: 574
GlyphClass: 1
Flags: MW
HStem: -11 82<274.5 303 274.5 311> 500 20G<74 167 167 167 401 494 494 494>
VStem: 74 93<228 248 248 520> 401 93<81 520>
LayerCount: 2
Fore
SplineSet
494 15 m 1
 473 10 444 4 410 -2 c 0
 374 -8 334 -11 288 -11 c 0
 248 -11 214 -5 187 6 c 0
 160 18 138 35 121 56 c 0
 104 77 92 102 85 132 c 0
 78 160 74 193 74 228 c 2
 74 520 l 1
 167 520 l 1
 167 248 l 2
 167 185 177 139 197 112 c 0
 217 85 251 71 298 71 c 0
 308 71 318 71 329 72 c 0
 340 73 350 74 359 74 c 0
 368 76 377 76 384 78 c 0
 392 78 398 80 401 81 c 2
 401 520 l 1
 494 520 l 1
 494 15 l 1
EndSplineSet
Validated: 1
EndChar

StartChar: v
Encoding: 89 118 89
Width: 502
GlyphClass: 1
Flags: MW
HStem: 0 21G<209 293 209 209> 500 20G<16 116 116 116 390 486 486 486>
LayerCount: 2
Fore
SplineSet
486 520 m 1
 460 423 430 329 394 240 c 0
 360 151 326 71 293 0 c 1
 209 0 l 1
 176 71 142 151 108 240 c 0
 72 329 42 423 16 520 c 1
 116 520 l 1
 124 487 134 452 144 416 c 0
 156 378 167 342 180 306 c 0
 192 269 204 234 217 200 c 0
 230 166 242 136 253 109 c 1
 264 136 276 166 289 200 c 0
 302 234 314 269 326 306 c 0
 339 342 350 378 362 416 c 0
 372 452 382 487 390 520 c 1
 486 520 l 1
EndSplineSet
Validated: 1
EndChar

StartChar: w
Encoding: 90 119 90
Width: 777
GlyphClass: 1
Flags: MW
HStem: 0 21G<191 272 191 191 505 586 505 505> 500 20G<18 118 118 118 353 430 430 430 663 759 759 759>
VStem: 353 77<520 520>
LayerCount: 2
Fore
SplineSet
505 0 m 1
 486 48 466 103 446 164 c 0
 424 226 405 290 388 357 c 1
 371 290 352 226 331 164 c 0
 310 103 291 48 272 0 c 1
 191 0 l 1
 160 69 130 147 101 235 c 0
 72 323 44 418 18 520 c 1
 118 520 l 1
 125 489 133 455 142 418 c 0
 151 381 161 345 172 308 c 0
 182 271 193 236 204 202 c 0
 215 168 226 138 236 113 c 1
 247 144 258 178 270 212 c 0
 280 248 291 283 301 318 c 0
 311 354 320 389 330 424 c 0
 338 458 346 490 353 520 c 1
 430 520 l 1
 436 490 443 458 452 424 c 0
 461 389 470 354 480 318 c 0
 490 283 500 248 512 212 c 0
 522 178 534 144 545 113 c 1
 555 138 566 168 576 202 c 0
 588 236 598 271 609 308 c 0
 620 345 630 381 639 418 c 0
 648 455 656 489 663 520 c 1
 759 520 l 1
 733 418 705 323 676 235 c 0
 647 147 617 69 586 0 c 1
 505 0 l 1
EndSplineSet
Validated: 1
EndChar

StartChar: x
Encoding: 91 120 91
Width: 511
GlyphClass: 1
Flags: MW
HStem: 0 21G<16 112 16 16 391 493 391 391> 500 20G<24 129 129 129 378 477 477 477>
LayerCount: 2
Fore
SplineSet
391 0 m 1
 384 15 375 31 364 49 c 0
 353 67 342 86 329 104 c 0
 316 124 303 142 290 161 c 0
 277 180 264 197 251 214 c 1
 238 197 225 180 212 160 c 0
 199 142 186 122 174 104 c 0
 161 84 150 66 139 48 c 0
 128 30 119 14 112 0 c 1
 16 0 l 1
 39 45 67 92 100 138 c 0
 132 186 164 230 196 273 c 1
 24 520 l 1
 129 520 l 1
 253 338 l 1
 378 520 l 1
 477 520 l 1
 309 279 l 1
 341 236 374 190 408 142 c 0
 441 93 470 46 493 0 c 1
 391 0 l 1
EndSplineSet
Validated: 1
EndChar

StartChar: y
Encoding: 92 121 92
Width: 497
GlyphClass: 1
Flags: MW
HStem: -188 77<79.5 96.5> 500 20G<16 116 116 116 383 479 479 479>
LayerCount: 2
Fore
SplineSet
19 -97 m 1
 26 -100 36 -104 48 -106 c 0
 59 -110 71 -111 82 -111 c 0
 119 -111 147 -103 168 -86 c 0
 189 -70 207 -44 224 -7 c 1
 182 73 143 158 106 248 c 0
 70 337 40 428 16 520 c 1
 116 520 l 1
 123 490 132 458 142 423 c 0
 153 388 164 353 177 316 c 0
 190 279 203 243 218 206 c 0
 233 169 248 134 264 100 c 1
 289 170 311 239 330 308 c 0
 349 377 366 447 383 520 c 1
 479 520 l 1
 455 422 428 328 399 238 c 0
 370 147 338 63 304 -16 c 0
 291 -46 277 -72 262 -94 c 0
 248 -115 232 -133 215 -147 c 0
 198 -161 178 -171 156 -178 c 0
 135 -185 110 -188 83 -188 c 0
 76 -188 68 -188 60 -186 c 0
 52 -186 44 -184 36 -182 c 0
 29 -181 22 -179 16 -177 c 0
 9 -175 5 -173 2 -172 c 2
 19 -97 l 1
EndSplineSet
Validated: 1
EndChar

StartChar: z
Encoding: 93 122 93
Width: 471
GlyphClass: 1
Flags: MW
HStem: 0 78<147 433 147 433> 442 78<50 307 50 425>
LayerCount: 2
Fore
SplineSet
425 450 m 1
 411 435 392 413 370 385 c 0
 346 357 322 326 296 292 c 0
 269 258 243 222 216 185 c 0
 190 148 167 112 147 78 c 1
 433 78 l 1
 433 0 l 1
 36 0 l 1
 36 62 l 1
 52 91 72 124 95 159 c 0
 118 194 143 230 168 264 c 0
 194 300 219 332 244 364 c 0
 268 394 289 421 307 442 c 1
 50 442 l 1
 50 520 l 1
 425 520 l 1
 425 450 l 1
EndSplineSet
Validated: 1
EndChar

StartChar: braceleft
Encoding: 94 123 94
Width: 333
GlyphClass: 1
Flags: MW
HStem: -185 73<306 321 321 325> 263 72<40 48> 710 73<321 325 321 325>
VStem: 132 87<-14 -13 -13 141 435 457 457 611>
CounterMasks: 1 e0
LayerCount: 2
Fore
SplineSet
40 335 m 1
 56 335 70 338 81 344 c 0
 92 349 102 356 110 366 c 0
 117 374 123 385 126 396 c 0
 130 408 132 420 132 432 c 2
 132 612 l 2
 132 639 135 664 141 685 c 0
 147 706 157 724 172 738 c 0
 187 753 206 764 230 772 c 0
 255 779 285 783 321 783 c 2
 325 783 l 1
 325 710 l 1
 287 710 260 703 244 690 c 0
 227 676 219 650 219 611 c 2
 219 457 l 2
 219 413 213 379 202 355 c 0
 190 331 173 312 152 299 c 1
 173 286 190 267 202 243 c 0
 213 219 219 185 219 141 c 2
 219 -13 l 2
 219 -52 227 -78 244 -92 c 0
 260 -105 287 -112 325 -112 c 1
 325 -185 l 1
 321 -185 l 2
 285 -185 255 -181 230 -174 c 0
 206 -167 187 -156 172 -141 c 0
 157 -126 147 -108 141 -87 c 0
 135 -66 132 -41 132 -14 c 2
 132 166 l 2
 132 178 130 190 126 202 c 0
 123 213 117 224 110 232 c 0
 102 242 92 249 81 254 c 0
 70 260 56 263 40 263 c 1
 40 335 l 1
EndSplineSet
Validated: 1
EndChar

StartChar: bar
Encoding: 95 124 95
Width: 279
GlyphClass: 1
Flags: MW
HStem: -185 21G<96 183 96 96>
VStem: 96 87<-185 783 -185 783>
LayerCount: 2
Fore
SplineSet
96 783 m 1
 183 783 l 1
 183 -185 l 1
 96 -185 l 1
 96 783 l 1
EndSplineSet
Validated: 1
EndChar

StartChar: braceright
Encoding: 96 125 96
Width: 333
GlyphClass: 1
Flags: MW
HStem: -185 73<8 12 8 27> 263 72<285 293> 710 73<8 12 12 27>
VStem: 114 87<-13 141 141 163 457 611 611 612>
CounterMasks: 1 e0
LayerCount: 2
Fore
SplineSet
293 263 m 1
 277 263 263 260 252 254 c 0
 241 249 231 242 224 232 c 0
 216 224 210 213 206 202 c 0
 203 190 201 178 201 166 c 2
 201 -14 l 2
 201 -41 198 -66 192 -87 c 0
 186 -108 176 -126 161 -141 c 0
 146 -156 127 -167 102 -174 c 0
 78 -181 48 -185 12 -185 c 2
 8 -185 l 1
 8 -112 l 1
 46 -112 73 -105 90 -92 c 0
 106 -78 114 -52 114 -13 c 2
 114 141 l 2
 114 185 120 219 132 243 c 0
 143 267 160 286 181 299 c 1
 160 312 143 331 132 355 c 0
 120 379 114 413 114 457 c 2
 114 611 l 2
 114 650 106 676 90 690 c 0
 73 703 46 710 8 710 c 1
 8 783 l 1
 12 783 l 2
 48 783 78 779 102 772 c 0
 127 764 146 753 161 738 c 0
 176 724 186 706 192 685 c 0
 198 664 201 639 201 612 c 2
 201 432 l 2
 201 420 203 408 206 396 c 0
 210 385 216 374 224 366 c 0
 231 356 241 349 252 344 c 0
 263 338 277 335 293 335 c 1
 293 263 l 1
EndSplineSet
Validated: 1
EndChar

StartChar: asciitilde
Encoding: 97 126 97
Width: 564
GlyphClass: 1
Flags: MW
HStem: 217 80<378.5 393.5 378.5 394.5> 302 80<168.5 183.5>
VStem: 42 64<224 242> 456 64<357 375>
LayerCount: 2
Fore
SplineSet
520 357 m 1
 517 344 513 329 508 313 c 0
 502 297 494 282 483 268 c 0
 472 253 459 241 442 232 c 0
 426 222 406 217 383 217 c 0
 363 217 344 221 328 229 c 0
 310 237 294 246 279 255 c 0
 261 266 244 276 227 286 c 0
 210 297 193 302 174 302 c 0
 163 302 154 300 147 294 c 0
 140 290 133 283 128 276 c 0
 123 268 118 260 115 250 c 0
 112 242 109 233 106 224 c 1
 42 242 l 1
 45 255 49 269 55 286 c 0
 61 302 69 317 80 332 c 0
 90 346 103 358 120 368 c 0
 136 377 156 382 179 382 c 0
 199 382 218 378 234 370 c 0
 252 362 268 353 283 344 c 0
 301 333 318 323 335 312 c 0
 352 302 369 297 388 297 c 0
 399 297 408 300 415 304 c 0
 422 310 429 316 434 324 c 0
 439 331 444 340 447 348 c 0
 450 358 453 366 456 375 c 1
 520 357 l 1
EndSplineSet
Validated: 1
EndChar

StartChar: endash
Encoding: 98 8211 98
Width: 400
Flags: W
HStem: 256 87<15 385>
LayerCount: 2
Fore
SplineSet
15 343 m 1
 385 343 l 1
 385 256 l 1
 15 256 l 1
 15 343 l 1
EndSplineSet
Validated: 1
EndChar
